<svg width="345" height="148" viewBox="0 0 345 148" fill="none" xmlns="http://www.w3.org/2000/svg">
<path opacity="0.75" d="M402.544 61.4173C384.234 63.6841 365.328 64.0047 347.026 61.5545C330.68 59.3813 314.179 55.694 308.104 38.2217C305.517 30.5746 305.006 22.091 306.15 14.0906C307.32 5.48335 310.757 -2.17718 312.938 -10.5958C318.032 -30.8794 295.969 -40.7589 279.517 -43.3013C261.515 -45.9577 242.479 -42.603 225.072 -38.1583C206.558 -33.3956 188.853 -25.9482 171.938 -17.1301C136.903 0.892875 105.186 25.9131 75.5292 51.5796C57.3225 67.3219 39.833 83.897 23.3293 101.267C13.8663 111.3 -7.34103 131.9 3.68063 146.712C5.08335 148.546 7.43322 148.11 8.55453 146.31C12.2131 140.264 15.0971 134.16 19.773 128.741C25.5758 121.958 32.2958 115.871 38.61 109.621C52.8656 95.4136 67.7012 81.839 83.0167 68.9656C112.584 44.2437 143.923 21.2501 177.878 2.93831C193.317 -5.45572 209.617 -12.3788 226.581 -17.2556C242.339 -21.7456 260.126 -25.4205 276.541 -23.1472C279.945 -22.6874 283.387 -21.9585 286.633 -20.6543C288.494 -19.8706 290.523 -19.0555 292.152 -17.9655C294.018 -16.7439 293.912 -17.113 294.029 -15.868C294.205 -12.6022 291.768 -8.42544 290.832 -5.27952C289.506 -0.982844 288.518 3.37673 287.936 7.89931C285.516 24.1377 286.744 41.4054 295.605 55.6396C306.011 72.3464 325.88 79.0208 344.672 80.2516C365.381 81.4903 385.091 78.2613 403.924 69.4512C408.038 67.5093 407.481 60.6773 402.544 61.4173Z" fill="#FFB800" fill-opacity="0.9"/>
</svg>
