<svg width="264" height="240" viewBox="0 0 264 240" fill="none" xmlns="http://www.w3.org/2000/svg">
<path d="M-315.346 150.191C-288.757 143.227 -260.903 139.02 -233.396 139.023C-208.831 139.003 -183.741 141.188 -171.33 165.788C-166.005 176.569 -163.58 188.995 -163.694 201.034C-163.727 213.975 -167.293 225.965 -168.857 238.827C-172.385 269.783 -137.862 280.014 -113.068 280.518C-85.9635 280.885 -58.5154 272.171 -33.6871 262.17C-7.28779 251.481 17.3903 236.987 40.6301 220.625C88.815 187.092 130.722 143.883 169.459 100.126C193.244 73.2849 215.805 45.3558 236.755 16.4468C248.752 -0.23592 276.011 -34.8434 256.82 -54.5374C254.388 -56.9688 251.004 -55.8612 249.703 -52.9808C245.491 -43.3303 242.434 -33.7487 236.597 -24.8223C229.364 -13.6612 220.64 -3.34544 212.547 7.13085C194.294 30.9245 175.06 53.899 154.98 75.9329C116.189 118.277 74.4408 158.42 27.908 192.165C6.76294 207.609 -15.9413 221.051 -40.0306 231.603C-62.4146 241.346 -87.9553 250.285 -112.642 250.171C-117.759 250.164 -122.984 249.768 -128.035 248.483C-130.936 247.694 -134.093 246.891 -136.713 245.603C-139.709 244.168 -139.48 244.692 -139.897 242.877C-140.8 238.089 -138.024 231.44 -137.261 226.61C-136.15 220.004 -135.549 213.371 -135.58 206.578C-135.204 182.123 -140.417 156.868 -156.303 137.6C-174.958 114.986 -205.611 109.055 -233.6 110.95C-264.423 113.211 -292.892 121.872 -318.966 138.601C-324.658 142.281 -322.49 152.259 -315.346 150.191Z" fill="#2972FE" fill-opacity="0.8"/>
</svg>
