<svg width="243" height="165" viewBox="0 0 243 165" fill="none" xmlns="http://www.w3.org/2000/svg">
<path opacity="0.75" d="M-159.799 87.1647C-141.489 84.8979 -122.583 84.5773 -104.281 87.0275C-87.9346 89.2007 -71.4341 92.888 -65.3588 110.36C-62.7723 118.007 -62.2614 126.491 -63.4053 134.491C-64.5753 143.099 -68.0116 150.759 -70.1934 159.178C-75.2873 179.461 -53.224 189.341 -36.7717 191.883C-18.7701 194.54 0.265936 191.185 17.6731 186.74C36.1867 181.978 53.8925 174.53 70.807 165.712C105.843 147.689 137.56 122.669 167.216 97.0025C185.423 81.2601 202.912 64.6851 219.416 47.3146C228.879 37.2823 250.086 16.6818 239.065 1.87005C237.662 0.0357647 235.312 0.471555 234.191 2.27227C230.532 8.31851 227.648 14.4218 222.972 19.8415C217.169 26.624 210.449 32.7112 204.135 38.9615C189.88 53.1684 175.044 66.743 159.728 79.6165C130.161 104.338 98.8223 127.332 64.8671 145.644C49.4277 154.038 33.1285 160.961 16.1642 165.838C0.406354 170.328 -17.3807 174.003 -33.796 171.729C-37.2002 171.269 -40.6415 170.541 -43.8882 169.236C-45.7487 168.453 -47.7779 167.638 -49.4068 166.548C-51.2728 165.326 -51.1673 165.695 -51.2839 164.45C-51.4598 161.184 -49.0225 157.007 -48.0864 153.862C-46.7611 149.565 -45.7731 145.205 -45.1909 140.683C-42.7714 124.444 -43.9988 107.177 -52.8598 92.9424C-63.266 76.2357 -83.1353 69.5612 -101.926 68.3305C-122.636 67.0917 -142.346 70.3207 -161.179 79.1308C-165.293 81.0727 -164.736 87.9047 -159.799 87.1647Z" fill="#FFB800" fill-opacity="0.9"/>
</svg>
