<svg width="24" height="24" viewBox="0 0 24 24" fill="none" xmlns="http://www.w3.org/2000/svg">
    <path fill-rule="evenodd" clip-rule="evenodd" d="M14.78 8.41514L11.19 11.9951L14.79 15.5751C15.18 15.9751 15.18 16.6051 14.79 16.9951L10.49 21.2951C9.86 21.9251 8.78 21.4751 8.78 20.5851V14.4051L4.89 18.2951C4.5 18.6851 3.87 18.6851 3.48 18.2951C3.09 17.9051 3.09 17.2751 3.48 16.8851L8.37 11.9951L3.48 7.10514C3.09 6.71514 3.09 6.08514 3.48 5.69514C3.66683 5.50789 3.92048 5.40266 4.185 5.40266C4.44952 5.40266 4.70317 5.50789 4.89 5.69514L8.78 9.59514V3.41514C8.78 2.52514 9.86 2.07514 10.49 2.70514L14.78 6.99514C15.17 7.39514 15.17 8.02514 14.78 8.41514ZM19.9 7.77514C19.65 7.22514 18.92 7.10514 18.5 7.53514C18.24 7.79514 18.19 8.17514 18.33 8.51514C18.79 9.58514 19.05 10.7551 19.05 11.9851C19.05 13.2251 18.79 14.4051 18.32 15.4751C18.18 15.7951 18.23 16.1651 18.48 16.4151C18.89 16.8251 19.58 16.7051 19.83 16.1851C20.46 14.8851 20.81 13.4251 20.81 11.8851C20.8 10.4351 20.48 9.03514 19.9 7.77514ZM15.78 10.2751L14.4 11.6551C14.2 11.8551 14.2 12.1651 14.4 12.3651L15.78 13.7451C16.06 14.0251 16.53 13.8951 16.63 13.5151C16.74 13.0151 16.8 12.5151 16.8 11.9951C16.8 11.4851 16.74 10.9851 16.62 10.5151C16.53 10.1351 16.06 9.99514 15.78 10.2751ZM10.78 5.82514L12.66 7.70514L10.78 9.58514V5.82514ZM12.66 16.2851L10.78 14.4051V18.1651L12.66 16.2851Z" fill="black"/>

</svg>
