<svg width="24" height="24" viewBox="0 0 24 24" fill="none" xmlns="http://www.w3.org/2000/svg">
    <path fill-rule="evenodd" clip-rule="evenodd" d="M16.6832 14.9781L19.2232 15.2681C20.2332 15.3881 20.9932 16.2381 20.9832 17.2481V18.9781C20.9832 20.1081 20.0432 21.0481 18.9132 20.9781C10.3832 20.4481 3.5532 13.6281 3.0232 5.08807C2.9532 3.95807 3.8932 3.01807 5.0232 3.01807H6.7532C7.7732 3.01807 8.6232 3.77807 8.7432 4.78807L9.0332 7.30807C9.1032 7.91807 8.8932 8.51807 8.4632 8.94807L6.6132 10.7981C8.0532 13.6381 10.3732 15.9481 13.2032 17.3881L15.0432 15.5481C15.4732 15.1181 16.0732 14.9081 16.6832 14.9781ZM12.8732 5.05807C16.0532 5.45807 18.5432 7.94807 18.9432 11.1281C19.0032 11.6381 19.4332 12.0081 19.9332 12.0081C19.9732 12.0081 20.0132 12.0081 20.0532 11.9981C20.6032 11.9281 20.9932 11.4281 20.9232 10.8781C20.4132 6.78807 17.2032 3.57807 13.1132 3.06807C12.5632 3.00807 12.0632 3.39807 12.0032 3.94807C11.9332 4.49807 12.3232 4.99807 12.8732 5.05807ZM13.2532 7.16807C12.7232 7.02807 12.1732 7.34807 12.0332 7.88807C11.8932 8.42807 12.2132 8.96807 12.7532 9.10807C13.8032 9.37807 14.6232 10.1981 14.9032 11.2581C15.0232 11.7081 15.4232 12.0081 15.8732 12.0081C15.9532 12.0081 16.0432 11.9981 16.1232 11.9781C16.6532 11.8381 16.9732 11.2881 16.8432 10.7581C16.3732 8.98807 15.0032 7.61807 13.2532 7.16807Z" fill="black"/>

</svg>
