<svg width="24" height="24" viewBox="0 0 24 24" fill="none" xmlns="http://www.w3.org/2000/svg">
    <path fill-rule="evenodd" clip-rule="evenodd" d="M7.19531 6C8.30531 6 9.19531 5.11 9.19531 4C9.19531 2.89 8.30531 2 7.19531 2C6.08531 2 5.19531 2.89 5.19531 4C5.19531 5.11 6.08531 6 7.19531 6ZM5.19531 14.5V21C5.19531 21.55 5.64531 22 6.19531 22H8.19531C8.74531 22 9.19531 21.55 9.19531 21V14.5H9.69531C10.2453 14.5 10.6953 14.05 10.6953 13.5V9C10.6953 7.9 9.79531 7 8.69531 7H5.69531C4.59531 7 3.69531 7.9 3.69531 9V13.5C3.69531 14.05 4.14531 14.5 4.69531 14.5H5.19531ZM17.6953 16V21C17.6953 21.55 17.2453 22 16.6953 22H15.6953C15.1453 22 14.6953 21.55 14.6953 21V16H13.0853C12.3953 16 11.9153 15.33 12.1353 14.68L14.2353 8.37C14.5053 7.55 15.2753 7 16.1353 7H16.2553C17.1153 7 17.8753 7.55 18.1553 8.37L20.2553 14.68C20.4653 15.33 19.9853 16 19.3053 16H17.6953ZM18.1953 4C18.1953 5.11 17.3053 6 16.1953 6C15.0853 6 14.1953 5.11 14.1953 4C14.1953 2.89 15.0853 2 16.1953 2C17.3053 2 18.1953 2.89 18.1953 4Z" fill="black"/>

</svg>
