<svg width="24" height="24" viewBox="0 0 24 24" fill="none" xmlns="http://www.w3.org/2000/svg">
    <path fill-rule="evenodd" clip-rule="evenodd" d="M4.1132 3.52491L19.6732 19.0849C20.0632 19.4749 20.0632 20.1049 19.6732 20.4749C19.2832 20.8649 18.6532 20.8649 18.2632 20.4749L11.8932 14.1049C10.5032 14.1349 9.1132 14.5549 7.9232 15.3949C7.3532 15.8049 6.5832 15.7549 6.0932 15.2649L6.0832 15.2549C5.4832 14.6549 5.5232 13.6449 6.2132 13.1449C7.1932 12.4349 8.2732 11.9349 9.4032 11.6349L7.1732 9.40491C6.0232 9.87491 4.9232 10.5149 3.9232 11.3349C3.3732 11.7949 2.5632 11.7449 2.0532 11.2349C1.4632 10.6449 1.5032 9.66491 2.1532 9.13491C3.0532 8.39491 4.0332 7.78491 5.0432 7.28491L2.7032 4.93491C2.3132 4.54491 2.3132 3.91491 2.7032 3.52491C2.89003 3.33765 3.14368 3.23242 3.4082 3.23242C3.67272 3.23242 3.92637 3.33765 4.1132 3.52491ZM21.9432 11.2349C21.4332 11.7449 20.6132 11.7849 20.0532 11.3249C17.6832 9.38491 14.7732 8.43491 11.8832 8.46491L9.2932 5.87491C13.6432 5.10491 18.2532 6.19491 21.8432 9.13491C22.4932 9.66491 22.5332 10.6449 21.9432 11.2349ZM15.2632 11.8549C16.1532 12.1549 17.0032 12.5849 17.7832 13.1549C18.3132 13.5349 18.4532 14.2249 18.2132 14.8049L15.2632 11.8549ZM13.9432 17.4149C12.7232 16.7849 11.2632 16.7849 10.0332 17.4149C9.4432 17.7249 9.3332 18.5349 9.8032 19.0049L11.2732 20.4749C11.6632 20.8649 12.2932 20.8649 12.6832 20.4749L14.1532 19.0049C14.6432 18.5349 14.5432 17.7249 13.9432 17.4149Z" fill="black"/>

</svg>
