<svg width="24" height="24" viewBox="0 0 24 24" fill="none" xmlns="http://www.w3.org/2000/svg">
    <path d="M5.20703 13.0002H16.377L11.497 17.8802C11.107 18.2702 11.107 18.9102 11.497 19.3002C11.887 19.6902 12.517 19.6902 12.907 19.3002L19.497 12.7102C19.887 12.3202 19.887 11.6902 19.497 11.3002L12.917 4.7002C12.7302 4.51295 12.4765 4.40771 12.212 4.40771C11.9475 4.40771 11.6939 4.51295 11.507 4.7002C11.117 5.0902 11.117 5.7202 11.507 6.1102L16.377 11.0002H5.20703C4.65703 11.0002 4.20703 11.4502 4.20703 12.0002C4.20703 12.5502 4.65703 13.0002 5.20703 13.0002Z" fill="black"/>

</svg>
