<svg width="24" height="24" viewBox="0 0 24 24" fill="none" xmlns="http://www.w3.org/2000/svg">
    <path d="M18.7895 11.0051H7.61953L12.4995 6.12508C12.8895 5.73508 12.8895 5.09508 12.4995 4.70508C12.3127 4.51783 12.059 4.4126 11.7945 4.4126C11.53 4.4126 11.2764 4.51783 11.0895 4.70508L4.49953 11.2951C4.10953 11.6851 4.10953 12.3151 4.49953 12.7051L11.0895 19.2951C11.4795 19.6851 12.1095 19.6851 12.4995 19.2951C12.8895 18.9051 12.8895 18.2751 12.4995 17.8851L7.61953 13.0051H18.7895C19.3395 13.0051 19.7895 12.5551 19.7895 12.0051C19.7895 11.4551 19.3395 11.0051 18.7895 11.0051Z" fill="black"/>

</svg>
