<svg width="24" height="24" viewBox="0 0 24 24" fill="none" xmlns="http://www.w3.org/2000/svg">
    <path d="M12.9987 18.7915V7.62147L17.8787 12.5015C18.2688 12.8915 18.9087 12.8915 19.2987 12.5015C19.6888 12.1115 19.6888 11.4815 19.2987 11.0915L12.7087 4.50147C12.5219 4.31422 12.2683 4.20898 12.0037 4.20898C11.7392 4.20898 11.4856 4.31422 11.2987 4.50147L4.69875 11.0815C4.30875 11.4715 4.30875 12.1015 4.69875 12.4915C5.08875 12.8815 5.71875 12.8815 6.10875 12.4915L10.9988 7.62147V18.7915C10.9988 19.3415 11.4488 19.7915 11.9988 19.7915C12.5487 19.7915 12.9987 19.3415 12.9987 18.7915Z" fill="black"/>

</svg>
