<svg width="24" height="24" viewBox="0 0 24 24" fill="none" xmlns="http://www.w3.org/2000/svg">
    <path d="M11.0066 5.20898V16.379L6.12656 11.499C5.73656 11.109 5.09656 11.109 4.70656 11.499C4.31656 11.889 4.31656 12.519 4.70656 12.909L11.2966 19.499C11.6866 19.889 12.3166 19.889 12.7066 19.499L19.2966 12.909C19.6866 12.519 19.6866 11.889 19.2966 11.499C19.1097 11.3117 18.8561 11.2065 18.5916 11.2065C18.327 11.2065 18.0734 11.3117 17.8866 11.499L13.0066 16.379V5.20898C13.0066 4.65898 12.5566 4.20898 12.0066 4.20898C11.4566 4.20898 11.0066 4.65898 11.0066 5.20898Z" fill="black"/>

</svg>
