<svg width="24" height="24" viewBox="0 0 24 24" fill="none" xmlns="http://www.w3.org/2000/svg">
    <path fill-rule="evenodd" clip-rule="evenodd" d="M18.0025 7C18.0025 6.45 17.5525 6 17.0025 6C16.4525 6 16.0025 6.45 16.0025 7V17C16.0025 17.55 16.4525 18 17.0025 18C17.5525 18 18.0025 17.55 18.0025 17V7ZM10.1825 12L6.2925 8.11C5.9125 7.73 5.9125 7.09 6.2925 6.7C6.47933 6.51275 6.73298 6.40751 6.9975 6.40751C7.26202 6.40751 7.51567 6.51275 7.7025 6.7L12.2925 11.3C12.6825 11.69 12.6825 12.32 12.2925 12.71L7.7025 17.3C7.3125 17.69 6.6825 17.69 6.2925 17.3C5.9025 16.91 5.9025 16.28 6.2925 15.89L10.1825 12Z" fill="black"/>

</svg>
