<svg width="24" height="24" viewBox="0 0 24 24" fill="none" xmlns="http://www.w3.org/2000/svg">
    <path d="M17.6415 6.35146C16.0115 4.72146 13.7015 3.78146 11.1615 4.04146C7.49148 4.41146 4.47148 7.39146 4.06148 11.0615C3.51148 15.9115 7.26148 20.0015 11.9915 20.0015C15.1815 20.0015 17.9215 18.1315 19.2015 15.4415C19.5215 14.7715 19.0415 14.0015 18.3015 14.0015C17.9315 14.0015 17.5815 14.2015 17.4215 14.5315C16.2915 16.9615 13.5815 18.5015 10.6215 17.8415C8.40148 17.3515 6.61148 15.5415 6.14148 13.3215C5.30148 9.44146 8.25148 6.00146 11.9915 6.00146C13.6515 6.00146 15.1315 6.69146 16.2115 7.78146L14.7015 9.29146C14.0715 9.92146 14.5115 11.0015 15.4015 11.0015H18.9915C19.5415 11.0015 19.9915 10.5515 19.9915 10.0015V6.41146C19.9915 5.52146 18.9115 5.07146 18.2815 5.70146L17.6415 6.35146Z" fill="black"/>

</svg>
