<svg width="24" height="24" viewBox="0 0 24 24" fill="none" xmlns="http://www.w3.org/2000/svg">
    <path d="M18.997 15.419L14.417 19.999C14.027 20.389 13.387 20.389 12.997 19.999C12.607 19.609 12.607 18.969 12.997 18.579L15.877 15.709H5.70703C5.15703 15.709 4.70703 15.259 4.70703 14.709V4.70898C4.70703 4.15898 5.15703 3.70898 5.70703 3.70898C6.25703 3.70898 6.70703 4.15898 6.70703 4.70898V13.709H15.877L12.997 10.839C12.607 10.449 12.607 9.80898 12.997 9.41898C13.387 9.02898 14.027 9.02898 14.417 9.41898L18.997 13.999C19.387 14.389 19.387 15.029 18.997 15.419Z" fill="black"/>

</svg>
