<svg width="24" height="24" viewBox="0 0 24 24" fill="none" xmlns="http://www.w3.org/2000/svg">
    <path d="M4.99953 15.419L9.57953 19.999C9.96953 20.389 10.6095 20.389 10.9995 19.999C11.3895 19.609 11.3895 18.969 10.9995 18.579L8.11953 15.709H18.2895C18.8395 15.709 19.2895 15.259 19.2895 14.709V4.70898C19.2895 4.15898 18.8395 3.70898 18.2895 3.70898C17.7395 3.70898 17.2895 4.15898 17.2895 4.70898V13.709H8.11953L10.9995 10.839C11.3895 10.449 11.3895 9.80898 10.9995 9.41898C10.6095 9.02898 9.96953 9.02898 9.57953 9.41898L4.99953 13.999C4.60953 14.389 4.60953 15.029 4.99953 15.419Z" fill="black"/>

</svg>
