<svg width="24" height="24" viewBox="0 0 24 24" fill="none" xmlns="http://www.w3.org/2000/svg">
    <path fill-rule="evenodd" clip-rule="evenodd" d="M15.1756 4.40771C15.4401 4.40771 15.6938 4.51295 15.8806 4.7002C16.2706 5.0902 16.2706 5.7302 15.8706 6.1202L12.7006 9.2902C12.3106 9.6802 11.6806 9.6802 11.2906 9.2902L8.12062 6.1202C7.73063 5.7302 7.73063 5.0902 8.12062 4.7002C8.30746 4.51295 8.56111 4.40771 8.82563 4.40771C9.09014 4.40771 9.34379 4.51295 9.53062 4.7002L12.0006 7.1702L14.4706 4.7002C14.6575 4.51295 14.9111 4.40771 15.1756 4.40771ZM12.0006 16.8302L9.53062 19.3002C9.14062 19.6902 8.51063 19.6902 8.12063 19.3002C7.73063 18.9102 7.73062 18.2702 8.13063 17.8902L11.3006 14.7202C11.4875 14.5329 11.7411 14.4277 12.0056 14.4277C12.2701 14.4277 12.5238 14.5329 12.7106 14.7202L15.8806 17.8902C16.2706 18.2802 16.2706 18.9102 15.8806 19.3002C15.4906 19.6902 14.8606 19.6902 14.4706 19.3002L12.0006 16.8302Z" fill="black"/>

</svg>
