<svg width="24" height="24" viewBox="0 0 24 24" fill="none" xmlns="http://www.w3.org/2000/svg">
    <path fill-rule="evenodd" clip-rule="evenodd" d="M14.4606 8.2902L12.0006 5.8302L9.53062 8.2902C9.14062 8.6802 8.51063 8.6802 8.12062 8.2902C7.73063 7.9002 7.73063 7.2702 8.12062 6.8802L11.2906 3.7002C11.4775 3.51295 11.7311 3.40771 11.9956 3.40771C12.2601 3.40771 12.5138 3.51295 12.7006 3.7002L15.8706 6.8802C16.2606 7.2702 16.2606 7.9002 15.8706 8.2902C15.4806 8.6802 14.8506 8.6802 14.4606 8.2902ZM9.54062 15.7102L12.0006 18.1702L14.4706 15.7202C14.6575 15.5329 14.9111 15.4277 15.1756 15.4277C15.4401 15.4277 15.6938 15.5329 15.8806 15.7202C16.2706 16.1102 16.2706 16.7402 15.8806 17.1302L12.7106 20.3002C12.3206 20.6902 11.6906 20.6902 11.3006 20.3002L8.13062 17.1202C7.74063 16.7302 7.74063 16.1002 8.13062 15.7102C8.31746 15.5229 8.57111 15.4177 8.83563 15.4177C9.10014 15.4177 9.35379 15.5229 9.54062 15.7102Z" fill="black"/>

</svg>
