<svg width="24" height="24" viewBox="0 0 24 24" fill="none" xmlns="http://www.w3.org/2000/svg">
    <path fill-rule="evenodd" clip-rule="evenodd"
        d="M15.9915 8.01318H13.9915C13.4415 8.01318 12.9915 7.56318 12.9915 7.01318C12.9915 6.46318 13.4415 6.01318 13.9915 6.01318H15.9915V4.01318C15.9915 3.46318 16.4415 3.01318 16.9915 3.01318C17.5415 3.01318 17.9915 3.46318 17.9915 4.01318V6.01318H19.9915C20.5415 6.01318 20.9915 6.46318 20.9915 7.01318C20.9915 7.56318 20.5415 8.01318 19.9915 8.01318H17.9915V10.0132C17.9915 10.5632 17.5415 11.0132 16.9915 11.0132C16.4415 11.0132 15.9915 10.5632 15.9915 10.0132V8.01318ZM16.6615 14.9932L19.2015 15.2832C20.2115 15.3932 20.9815 16.2532 20.9715 17.2532V18.9832C20.9715 20.1132 20.0315 21.0532 18.9015 20.9832C10.3715 20.4532 3.54149 13.6332 3.01149 5.09318C2.94149 3.96318 3.88149 3.02318 5.01149 3.02318H6.74149C7.75149 3.02318 8.61149 3.79318 8.72149 4.80318L9.01149 7.32318C9.08149 7.92318 8.87149 8.53318 8.44149 8.96318L6.59149 10.8132C8.03149 13.6532 10.3515 15.9632 13.1815 17.4032L15.0215 15.5632C15.4515 15.1332 16.0515 14.9232 16.6615 14.9932Z"
        fill="black" />
</svg>
