<svg width="24" height="24" viewBox="0 0 24 24" fill="none" xmlns="http://www.w3.org/2000/svg">
        <path d="M19.2232 15.2681L16.6832 14.9781C16.0732 14.9081 15.4732 15.1181 15.0432 15.5481L13.2032 17.3881C10.3732 15.9481 8.0532 13.6381 6.6132 10.7981L8.4632 8.94807C8.8932 8.51807 9.1032 7.91807 9.0332 7.30807L8.7432 4.78807C8.6232 3.77807 7.7732 3.01807 6.7532 3.01807H5.0232C3.8932 3.01807 2.9532 3.95807 3.0232 5.08807C3.5532 13.6281 10.3832 20.4481 18.9132 20.9781C20.0432 21.0481 20.9832 20.1081 20.9832 18.9781V17.2481C20.9932 16.2381 20.2332 15.3881 19.2232 15.2681Z" fill="black"/>
</svg>
