<svg width="24" height="24" viewBox="0 0 24 24" fill="none" xmlns="http://www.w3.org/2000/svg">
        <path d="M4.58108 16.0302L6.58108 14.4402C7.06108 14.0602 7.34108 13.4802 7.34108 12.8702V10.2702C10.3611 9.29016 13.6311 9.28016 16.6611 10.2702V12.8802C16.6611 13.4902 16.9411 14.0702 17.4211 14.4502L19.4111 16.0302C20.2111 16.6602 21.3511 16.6002 22.0711 15.8802L23.2911 14.6602C24.0911 13.8602 24.0911 12.5302 23.2411 11.7802C16.8311 6.12016 7.17108 6.12016 0.76108 11.7802C-0.0889205 12.5302 -0.0889205 13.8602 0.71108 14.6602L1.93108 15.8802C2.64108 16.6002 3.78108 16.6602 4.58108 16.0302Z" fill="black"/>

</svg>
