<svg width="24" height="24" viewBox="0 0 24 24" fill="none" xmlns="http://www.w3.org/2000/svg">
        <path fill-rule="evenodd" clip-rule="evenodd" d="M12.0039 5.17773C13.4539 4.07773 15.5539 3.67773 17.5039 3.67773C18.9539 3.67773 20.4939 3.89773 21.7739 4.46773C22.5039 4.79773 22.9939 5.50773 22.9939 6.31773V17.5977C22.9939 18.9077 21.7739 19.8677 20.5139 19.5377C19.5339 19.2877 18.4939 19.1777 17.4939 19.1777C15.9339 19.1777 14.2739 19.4277 12.9339 20.0977C12.3439 20.3977 11.6639 20.3977 11.0639 20.0977C9.72391 19.4377 8.06391 19.1777 6.50391 19.1777C5.50391 19.1777 4.46391 19.2877 3.48391 19.5377C2.22391 19.8577 1.00391 18.8977 1.00391 17.5977V6.31773C1.00391 5.50773 1.49391 4.79773 2.22391 4.46773C3.51391 3.89773 5.05391 3.67773 6.50391 3.67773C8.45391 3.67773 10.5539 4.07773 12.0039 5.17773ZM19.8039 17.3877C20.4239 17.4977 21.0039 17.0377 21.0039 16.4077V6.93773C21.0039 6.46773 20.6639 6.05773 20.2039 5.95773C19.3339 5.76773 18.4239 5.67773 17.5039 5.67773C15.8039 5.67773 13.3539 6.32773 12.0039 7.17773V18.6877C13.3539 17.8377 15.8039 17.1877 17.5039 17.1877C18.2739 17.1877 19.0539 17.2477 19.8039 17.3877Z" fill="black"/>
</svg>