<svg width="24" height="24" viewBox="0 0 24 24" fill="none" xmlns="http://www.w3.org/2000/svg">
        <path fill-rule="evenodd" clip-rule="evenodd" d="M5.85466 6.1449L8.64466 3.3549C8.83466 3.1649 9.15466 3.1649 9.34466 3.3549L12.1347 6.1449C12.4547 6.4549 12.2347 6.9949 11.7847 6.9949H9.99466V13.0049C9.99466 13.5549 9.54466 14.0049 8.99466 14.0049C8.44466 14.0049 7.99466 13.5549 7.99466 13.0049V6.9949H6.20466C5.75466 6.9949 5.53466 6.4549 5.85466 6.1449ZM15.9947 11.0049V17.0149H17.7947C18.2347 17.0149 18.4647 17.5549 18.1447 17.8649L15.3547 20.6449C15.1547 20.8349 14.8447 20.8349 14.6447 20.6449L11.8547 17.8649C11.5347 17.5549 11.7547 17.0149 12.2047 17.0149H13.9947V11.0049C13.9947 10.4549 14.4447 10.0049 14.9947 10.0049C15.5447 10.0049 15.9947 10.4549 15.9947 11.0049Z" fill="black"/>
</svg>
