<svg width="24" height="24" viewBox="0 0 24 24" fill="none" xmlns="http://www.w3.org/2000/svg">
        <path fill-rule="evenodd" clip-rule="evenodd" d="M7.17123 3.88077L4.10123 6.44077C3.68123 6.79077 3.05123 6.74077 2.70123 6.31077C2.34123 5.89077 2.40123 5.26077 2.82123 4.90077L5.90123 2.34077C6.32123 1.99077 6.95123 2.04077 7.30123 2.47077C7.66123 2.89077 7.60123 3.52077 7.17123 3.88077ZM21.1812 4.90077L18.1012 2.34077C17.6812 1.99077 17.0512 2.04077 16.6912 2.47077C16.3412 2.89077 16.4012 3.52077 16.8212 3.88077L19.8912 6.44077C20.3112 6.79077 20.9412 6.74077 21.3012 6.31077C21.6612 5.89077 21.6012 5.26077 21.1812 4.90077ZM15.8712 15.1408L12.5012 13.1408V8.61077C12.5012 8.21077 12.1812 7.89077 11.7812 7.89077H11.7212C11.3212 7.89077 11.0012 8.21077 11.0012 8.61077V13.3308C11.0012 13.6808 11.1812 14.0108 11.4912 14.1908L15.1412 16.3808C15.4812 16.5808 15.9212 16.4808 16.1212 16.1408C16.3312 15.7908 16.2212 15.3408 15.8712 15.1408ZM12.0012 3.89077C7.03123 3.89077 3.00123 7.92077 3.00123 12.8908C3.00123 17.8608 7.03123 21.8908 12.0012 21.8908C16.9712 21.8908 21.0012 17.8608 21.0012 12.8908C21.0012 7.92077 16.9712 3.89077 12.0012 3.89077ZM5.00123 12.8908C5.00123 16.7508 8.14123 19.8908 12.0012 19.8908C15.8612 19.8908 19.0012 16.7508 19.0012 12.8908C19.0012 9.03077 15.8612 5.89077 12.0012 5.89077C8.14123 5.89077 5.00123 9.03077 5.00123 12.8908Z" fill="black"/>

</svg>
