<svg width="24" height="24" viewBox="0 0 24 24" fill="none" xmlns="http://www.w3.org/2000/svg">
        <path fill-rule="evenodd" clip-rule="evenodd" d="M21.5 14.6606C21.5 15.3706 20.81 15.8706 20.14 15.6606L19.15 15.3406L10.5 6.69057V3.58057C10.5 2.75057 11.17 2.08057 12 2.08057C12.83 2.08057 13.5 2.75057 13.5 3.58057V9.08057L21.01 13.7706C21.31 13.9706 21.5 14.3006 21.5 14.6606ZM20.64 19.6706L19.23 21.0806L13.5 15.3506V19.0806L15.3 20.4306C15.43 20.5206 15.5 20.6706 15.5 20.8306V21.4206C15.5 21.7506 15.18 21.9906 14.86 21.9006L12 21.0806L9.14 21.9006C8.82 21.9906 8.5 21.7506 8.5 21.4206V20.8306C8.5 20.6706 8.57 20.5206 8.7 20.4306L10.5 19.0806V13.5806L3.86 15.6606C3.18 15.8706 2.5 15.3606 2.5 14.6606C2.5 14.3006 2.69 13.9606 2.99 13.7806L8.49 10.3406L3.5 5.35057L4.91 3.94057L20.64 19.6706Z" fill="black"/>
</svg>
