<svg width="24" height="24" viewBox="0 0 24 24" fill="none" xmlns="http://www.w3.org/2000/svg">
        <path fill-rule="evenodd" clip-rule="evenodd" d="M17.6511 6.99615L13.3611 2.70615C12.7311 2.07615 11.6511 2.51615 11.6511 3.40615V9.58614L7.76109 5.69615C7.57426 5.50889 7.32061 5.40366 7.05609 5.40366C6.79158 5.40366 6.53793 5.50889 6.35109 5.69615C5.96109 6.08614 5.96109 6.71615 6.35109 7.10615L11.2411 11.9961L6.35109 16.8861C5.96109 17.2761 5.96109 17.9061 6.35109 18.2961C6.74109 18.6861 7.37109 18.6861 7.76109 18.2961L11.6511 14.4061V20.5861C11.6511 21.4761 12.7311 21.9261 13.3611 21.2961L17.6511 16.9961C18.0411 16.6061 18.0411 15.9761 17.6511 15.5861L14.0611 11.9961L17.6511 8.41615C18.0411 8.02615 18.0411 7.38615 17.6511 6.99615ZM13.6511 5.82615L15.5311 7.70615L13.6511 9.58615V5.82615ZM13.6511 18.1661L15.5311 16.2861L13.6511 14.4061V18.1661Z" fill="black"/>

</svg>
