<svg width="24" height="24" viewBox="0 0 24 24" fill="none" xmlns="http://www.w3.org/2000/svg">
        <path fill-rule="evenodd" clip-rule="evenodd" d="M11.2469 7.08621L15.4969 2.84621C15.8869 2.45621 16.5269 2.45621 16.9169 2.84621L21.1569 7.08621C21.5469 7.47621 21.5469 8.10621 21.1569 8.49621L16.9069 12.7462C16.5169 13.1362 15.8869 13.1362 15.4969 12.7462L11.2469 8.49621C10.8569 8.10621 10.8569 7.47621 11.2469 7.08621ZM2.54688 4.44621V10.4462C2.54688 10.9962 2.99687 11.4462 3.54688 11.4462H9.54688C10.0969 11.4462 10.5469 10.9962 10.5469 10.4462V4.44621C10.5469 3.89621 10.0969 3.44621 9.54688 3.44621H3.54688C2.99687 3.44621 2.54688 3.89621 2.54688 4.44621ZM9.54688 21.4462H3.54688C2.99687 21.4462 2.54688 20.9962 2.54688 20.4462V14.4462C2.54688 13.8962 2.99687 13.4462 3.54688 13.4462H9.54688C10.0969 13.4462 10.5469 13.8962 10.5469 14.4462V20.4462C10.5469 20.9962 10.0969 21.4462 9.54688 21.4462ZM12.5469 20.4462V14.4462C12.5469 13.8962 12.9969 13.4462 13.5469 13.4462H19.5469C20.0969 13.4462 20.5469 13.8962 20.5469 14.4462V20.4462C20.5469 20.9962 20.0969 21.4462 19.5469 21.4462H13.5469C12.9969 21.4462 12.5469 20.9962 12.5469 20.4462Z" fill="black"/>

</svg>
