<svg width="24" height="24" viewBox="0 0 24 24" fill="none" xmlns="http://www.w3.org/2000/svg">
        <path fill-rule="evenodd" clip-rule="evenodd" d="M7.53618 6.15508C7.85618 6.46508 7.63618 7.00508 7.18618 7.00508H5.89618V17.0051H7.18618C7.63618 17.0051 7.85618 17.5451 7.54618 17.8551L5.25618 20.1451C5.05618 20.3451 4.74618 20.3451 4.54618 20.1451L2.25618 17.8551C1.93618 17.5451 2.15618 17.0051 2.60618 17.0051H3.89618V7.00508H2.60618C2.15618 7.00508 1.93618 6.46508 2.24618 6.15508L4.53618 3.85508C4.73618 3.65508 5.04618 3.65508 5.24618 3.85508L7.53618 6.15508ZM20.8962 7.00508H10.8962C10.3462 7.00508 9.89618 6.55508 9.89618 6.00508C9.89618 5.45508 10.3462 5.00508 10.8962 5.00508H20.8962C21.4462 5.00508 21.8962 5.45508 21.8962 6.00508C21.8962 6.55508 21.4462 7.00508 20.8962 7.00508ZM20.8962 17.0051H10.8962C10.3462 17.0051 9.89618 17.4551 9.89618 18.0051C9.89618 18.5551 10.3462 19.0051 10.8962 19.0051H20.8962C21.4462 19.0051 21.8962 18.5551 21.8962 18.0051C21.8962 17.4551 21.4462 17.0051 20.8962 17.0051ZM10.8962 11.0051H20.8962C21.4462 11.0051 21.8962 11.4551 21.8962 12.0051C21.8962 12.5551 21.4462 13.0051 20.8962 13.0051H10.8962C10.3462 13.0051 9.89618 12.5551 9.89618 12.0051C9.89618 11.4551 10.3462 11.0051 10.8962 11.0051Z" fill="black"/>

</svg>
