<svg width="24" height="24" viewBox="0 0 24 24" fill="none" xmlns="http://www.w3.org/2000/svg">
    <path fill-rule="evenodd" clip-rule="evenodd"
        d="M8.32 0.496099L16.56 8.7361C17.15 9.3261 17.15 10.2761 16.56 10.8561L11.06 16.3561C10.77 16.6461 10.38 16.7961 10 16.7961C9.62 16.7961 9.23 16.6461 8.94 16.3561L3.44 10.8561C2.85 10.2761 2.85 9.3261 3.44 8.7361L8.59 3.5861L6.91 1.9061C6.52 1.5161 6.52 0.886099 6.91 0.496099C7.09683 0.308846 7.35048 0.203613 7.615 0.203613C7.87952 0.203613 8.13317 0.308846 8.32 0.496099ZM10 5.0061L5.21 9.7961H14.79L10 5.0061ZM19 11.2961C19 11.2961 17 13.4661 17 14.7961C17 15.8961 17.9 16.7961 19 16.7961C20.1 16.7961 21 15.8961 21 14.7961C21 13.4661 19 11.2961 19 11.2961ZM22 19.7961H2C0.9 19.7961 0 20.6961 0 21.7961C0 22.8961 0.9 23.7961 2 23.7961H22C23.1 23.7961 24 22.8961 24 21.7961C24 20.6961 23.1 19.7961 22 19.7961Z"
        fill="black" />
</svg>
