<svg width="24" height="24" viewBox="0 0 24 24" fill="none" xmlns="http://www.w3.org/2000/svg">
        <path fill-rule="evenodd" clip-rule="evenodd" d="M3.95434 11.38C4.23434 9.91 5.61434 8.9 7.11434 8.9H10.0443C10.5643 8.9 10.9943 8.47 10.9943 7.95C10.9943 7.43 10.5643 7 10.0443 7H7.21434C4.60434 7 2.27434 8.91 2.02434 11.51C1.73434 14.49 4.07434 17 6.99434 17H10.0443C10.5643 17 10.9943 16.57 10.9943 16.05C10.9943 15.53 10.5643 15.1 10.0443 15.1H6.99434C5.08434 15.1 3.57434 13.36 3.95434 11.38ZM8.99434 13H14.9943C15.5443 13 15.9943 12.55 15.9943 12C15.9943 11.45 15.5443 11 14.9943 11H8.99434C8.44434 11 7.99434 11.45 7.99434 12C7.99434 12.55 8.44434 13 8.99434 13ZM13.9443 7H16.7743C19.3843 7 21.7243 8.91 21.9743 11.51C22.2543 14.49 19.9143 17 16.9943 17H13.9443C13.4243 17 12.9943 16.57 12.9943 16.05C12.9943 15.53 13.4243 15.1 13.9443 15.1H16.9943C18.9043 15.1 20.4143 13.36 20.0343 11.38C19.7543 9.91 18.3743 8.9 16.8743 8.9H13.9443C13.4243 8.9 12.9943 8.47 12.9943 7.95C12.9943 7.43 13.4243 7 13.9443 7Z" fill="black"/>
</svg>
