<svg width="24" height="24" viewBox="0 0 24 24" fill="none" xmlns="http://www.w3.org/2000/svg">
        <path d="M4.18703 17.7644L9.48703 12.4644L12.737 15.7144C13.147 16.1244 13.807 16.1044 14.187 15.6744L21.357 7.6044C21.707 7.2144 21.687 6.6144 21.317 6.2344C20.917 5.8344 20.247 5.8444 19.867 6.2744L13.477 13.4544L10.187 10.1644C10.0002 9.97715 9.74655 9.87192 9.48203 9.87192C9.21751 9.87192 8.96386 9.97715 8.77703 10.1644L2.68703 16.2644C2.29703 16.6544 2.29703 17.2844 2.68703 17.6744L2.77703 17.7644C3.16703 18.1544 3.80703 18.1544 4.18703 17.7644Z" fill="black"/>
</svg>
