<svg width="24" height="24" viewBox="0 0 24 24" fill="none" xmlns="http://www.w3.org/2000/svg">
    <path fill-rule="evenodd" clip-rule="evenodd"
        d="M19.0005 16.75V10.75C19.0005 7.4 16.6405 4.6 13.5005 3.92V2.75C13.5005 1.92 12.8305 1.25 12.0005 1.25C11.1705 1.25 10.5005 1.92 10.5005 2.75V3.92C7.36054 4.6 5.00054 7.4 5.00054 10.75V16.75L3.71054 18.04C3.08054 18.67 3.52054 19.75 4.41054 19.75H19.5805C20.4705 19.75 20.9205 18.67 20.2905 18.04L19.0005 16.75ZM12.0005 22.75C13.1005 22.75 13.9905 21.86 13.9905 20.76H10.0105C10.0105 21.86 10.9005 22.75 12.0005 22.75ZM13.0005 12.76H15.0005C15.5505 12.76 16.0005 12.31 16.0005 11.76V11.75C16.0005 11.2 15.5505 10.75 15.0005 10.75H13.0005V8.75C13.0005 8.2 12.5505 7.75 12.0005 7.75C11.4505 7.75 11.0005 8.2 11.0005 8.75V10.75H9.00054C8.45054 10.75 8.00054 11.2 8.00054 11.75V11.76C8.00054 12.31 8.45054 12.76 9.00054 12.76H11.0005V14.76C11.0005 15.31 11.4505 15.76 12.0005 15.76C12.5505 15.76 13.0005 15.31 13.0005 14.76V12.76Z"
        fill="black" />
</svg>
