<svg width="24" height="24" viewBox="0 0 24 24" fill="none" xmlns="http://www.w3.org/2000/svg">
    <path fill-rule="evenodd" clip-rule="evenodd"
        d="M19.0005 16.75L20.2905 18.04C20.9205 18.67 20.4805 19.75 19.5805 19.75H4.41054C3.52054 19.75 3.08054 18.67 3.71054 18.04L5.00054 16.75V10.75C5.00054 7.4 7.36054 4.6 10.5005 3.92V2.75C10.5005 1.92 11.1705 1.25 12.0005 1.25C12.8305 1.25 13.5005 1.92 13.5005 2.75V3.92C16.6405 4.6 19.0005 7.4 19.0005 10.75V16.75ZM13.9905 20.76C13.9905 21.86 13.1005 22.75 12.0005 22.75C10.9005 22.75 10.0105 21.86 10.0105 20.76H13.9905ZM11.0005 15.75V13.75H13.0005V15.75H11.0005ZM12.0005 11.75C12.5505 11.75 13.0005 11.3 13.0005 10.75V8.75C13.0005 8.2 12.5505 7.75 12.0005 7.75C11.4505 7.75 11.0005 8.2 11.0005 8.75V10.75C11.0005 11.3 11.4505 11.75 12.0005 11.75Z"
        fill="black" />
</svg>
