<svg width="252" height="243" viewBox="0 0 252 243" fill="none" xmlns="http://www.w3.org/2000/svg">
<path d="M123.864 234.325C124.803 237.354 123.927 240.658 122.056 241.238C120.184 241.818 118.4 241.001 117.462 237.972C116.523 234.943 117.256 233.389 119.128 232.809C120.999 232.229 122.926 231.297 123.864 234.325Z" fill="#2972FE" fill-opacity="0.2"/>
<path d="M243.71 226.875C239.387 230.796 233.195 231.902 230.773 229.231C228.35 226.56 228.326 222.949 232.649 219.029C236.972 215.109 240.135 215.124 242.557 217.795C244.979 220.466 248.033 222.955 243.71 226.875Z" fill="#2972FE" fill-opacity="0.2"/>
<path d="M31.7419 220.925C25.7478 226.361 15.3417 225.888 10.0178 220.017C4.69392 214.147 3.19289 207.522 9.18698 202.086C15.1811 196.65 20.7307 197.955 26.0546 203.826C31.3785 209.697 37.736 215.49 31.7419 220.925Z" fill="#2972FE" fill-opacity="0.2"/>
<path d="M56.1193 130.792C57.0579 133.821 56.182 137.124 54.3107 137.704C52.4393 138.284 50.6551 137.468 49.7165 134.439C48.7778 131.41 49.5111 129.856 51.3825 129.276C53.2538 128.696 55.1806 127.763 56.1193 130.792Z" fill="#2972FE" fill-opacity="0.2"/>
<rect x="76" y="70.5005" width="101" height="101" rx="36.2248" fill="url(#paint0_linear_2846_72620)"/>
<mask id="mask0_2846_72620" style="mask-type:alpha" maskUnits="userSpaceOnUse" x="105" y="99" width="42" height="43">
<path fill-rule="evenodd" clip-rule="evenodd" d="M105.167 120.5C105.167 109 114.479 99.667 125.979 99.667C137.5 99.667 146.833 109 146.833 120.5C146.833 132 137.5 141.334 125.979 141.334C114.479 141.334 105.167 132 105.167 120.5ZM118.708 112.167C116.982 112.167 115.583 113.566 115.583 115.292C115.583 117.018 116.982 118.417 118.708 118.417C120.434 118.417 121.833 117.018 121.833 115.292C121.833 113.566 120.434 112.167 118.708 112.167ZM133.292 112.167C131.566 112.167 130.167 113.566 130.167 115.292C130.167 117.018 131.566 118.417 133.292 118.417C135.018 118.417 136.417 117.018 136.417 115.292C136.417 113.566 135.018 112.167 133.292 112.167ZM126 137.167C116.791 137.167 109.333 129.708 109.333 120.5C109.333 111.292 116.791 103.833 126 103.833C135.208 103.833 142.666 111.292 142.666 120.5C142.666 129.708 135.208 137.167 126 137.167ZM116.312 130.042C118.438 126.688 122.042 124.667 126 124.667C129.958 124.667 133.562 126.667 135.708 130.042C136.167 130.771 135.938 131.73 135.208 132.188C134.938 132.334 134.667 132.417 134.375 132.417C133.854 132.417 133.333 132.167 133.042 131.688C131.5 129.23 128.875 127.771 126 127.771C123.125 127.771 120.5 129.23 118.958 131.688C118.5 132.417 117.542 132.646 116.812 132.188C116.083 131.73 115.854 130.771 116.312 130.042Z" fill="black"/>
</mask>
<g mask="url(#mask0_2846_72620)">
<rect x="101" y="95.5005" width="50" height="50" fill="white"/>
</g>
<path d="M220.777 80.1543C220.123 71.8897 227.069 63.7438 235.214 63.0991C243.359 62.4544 249.709 65.3829 250.363 73.6475C251.017 81.912 246.454 85.5975 238.309 86.2422C230.164 86.8869 221.431 88.4188 220.777 80.1543Z" fill="#2972FE" fill-opacity="0.6"/>
<path d="M15.2253 63.9838C13.5756 65.74 9.72298 63.6182 7.72593 61.6211C5.72887 59.6241 3.20173 55.6913 6.11185 52.7812C9.02196 49.8711 12.9173 53.8985 14.9144 55.8956C16.9114 57.8926 16.875 62.2275 15.2253 63.9838Z" fill="#2972FE" fill-opacity="0.5"/>
<path d="M95.9371 29.1542C91.6141 33.0745 85.4219 34.1813 82.9997 31.5102C80.5775 28.8391 80.553 25.2279 84.876 21.3076C89.1991 17.3873 92.3619 17.4025 94.7841 20.0736C97.2063 22.7446 100.26 25.2339 95.9371 29.1542Z" fill="#2972FE" fill-opacity="0.2"/>
<path d="M172.537 3.37186C173.316 6.28009 171.373 9.64777 168.507 10.4157C165.641 11.1837 163.18 10.5571 162.401 7.64888C161.621 4.74065 163.008 3.12323 165.874 2.35526C168.74 1.58728 171.757 0.463623 172.537 3.37186Z" fill="#2972FE" fill-opacity="0.1"/>
<defs>
<linearGradient id="paint0_linear_2846_72620" x1="177" y1="171.746" x2="76" y2="70.7458" gradientUnits="userSpaceOnUse">
<stop stop-color="#2972FE"/>
<stop offset="1" stop-color="#6499FF"/>
</linearGradient>
</defs>
</svg>
