<svg width="24" height="24" viewBox="0 0 24 24" fill="none" xmlns="http://www.w3.org/2000/svg">
        <path d="M18.2987 5.7102C18.1119 5.52295 17.8583 5.41771 17.5938 5.41771C17.3292 5.41771 17.0756 5.52295 16.8888 5.7102L11.9988 10.5902L7.10875 5.7002C6.92192 5.51295 6.66827 5.40771 6.40375 5.40771C6.13923 5.40771 5.88558 5.51295 5.69875 5.7002C5.30875 6.0902 5.30875 6.7202 5.69875 7.1102L10.5887 12.0002L5.69875 16.8902C5.30875 17.2802 5.30875 17.9102 5.69875 18.3002C6.08875 18.6902 6.71875 18.6902 7.10875 18.3002L11.9988 13.4102L16.8888 18.3002C17.2788 18.6902 17.9087 18.6902 18.2987 18.3002C18.6888 17.9102 18.6888 17.2802 18.2987 16.8902L13.4087 12.0002L18.2987 7.1102C18.6788 6.7302 18.6788 6.0902 18.2987 5.7102Z" fill="black"/>
</svg>
