<svg width="24" height="24" viewBox="0 0 24 24" fill="none" xmlns="http://www.w3.org/2000/svg">
        <path fill-rule="evenodd" clip-rule="evenodd" d="M4.12019 3.6299C3.73019 3.2399 3.10019 3.2399 2.71019 3.6299C2.32019 4.0199 2.32019 4.6499 2.71019 5.0399L5.11019 7.4399C3.17019 8.2399 1.84019 10.2099 2.02019 12.4799C2.23019 15.1199 4.59019 17.0699 7.23019 17.0699H10.0502C10.5702 17.0699 11.0002 16.6399 11.0002 16.1199C11.0002 15.5999 10.5702 15.1699 10.0502 15.1699H7.16019C5.53019 15.1699 4.06019 13.9799 3.91019 12.3499C3.76019 10.6299 5.0202 9.1799 6.66019 8.9999L8.76019 11.0999C8.33019 11.1899 8.0002 11.5599 8.0002 12.0199V12.1199C8.0002 12.6399 8.43019 13.0699 8.95019 13.0699H10.7302L13.0002 15.3399V17.0699H14.7302L18.0302 20.3699C18.4202 20.7599 19.0502 20.7599 19.4402 20.3699C19.8302 19.9799 19.8302 19.3499 19.4402 18.9599L4.12019 3.6299ZM21.9402 11.2999C21.5702 8.8299 19.3202 7.0699 16.8202 7.0699H13.9502C13.4302 7.0699 13.0002 7.4999 13.0002 8.0199C13.0002 8.5399 13.4302 8.9699 13.9502 8.9699H16.8502C18.4502 8.9699 19.8902 10.1099 20.0702 11.6999C20.2402 13.1299 19.4302 14.3899 18.2202 14.9199L19.6202 16.3199C21.2502 15.2999 22.2602 13.4099 21.9402 11.2999ZM15.0502 11.0699C15.5702 11.0699 16.0002 11.4999 16.0002 12.0199V12.1199C16.0002 12.2799 15.9502 12.4299 15.8802 12.5599L14.3902 11.0699H15.0502Z" fill="black"/>
</svg>
