<svg width="24" height="24" viewBox="0 0 24 24" fill="none" xmlns="http://www.w3.org/2000/svg">
        <path fill-rule="evenodd" clip-rule="evenodd" d="M12.7895 6.20714V7.79714C19.7895 8.79714 22.7895 13.7971 23.7895 18.7971C21.2895 15.2971 17.7895 13.6971 12.7895 13.6971V15.3771C12.7895 16.2671 11.7095 16.7171 11.0795 16.0871L6.48953 11.4971C6.09953 11.1071 6.09953 10.4771 6.48953 10.0871L11.0795 5.49714C11.7095 4.86714 12.7895 5.31714 12.7895 6.20714ZM4.97953 5.60714C5.64953 4.93714 6.78953 5.41714 6.78953 6.35714C6.78953 6.63714 6.67953 6.90714 6.47953 7.10714L2.78953 10.7971L6.47953 14.4871C6.67953 14.6871 6.78953 14.9571 6.78953 15.2371C6.78953 16.1771 5.64953 16.6571 4.97953 15.9771L0.499531 11.4971C0.109531 11.1071 0.109531 10.4771 0.499531 10.0871L4.97953 5.60714Z" fill="black"/>
</svg>
