<svg width="24" height="24" viewBox="0 0 24 24" fill="none" xmlns="http://www.w3.org/2000/svg">
        <path fill-rule="evenodd" clip-rule="evenodd" d="M2.69906 1.29004L1.28906 2.70004L4.92906 6.34004L3.57906 7.69004C3.39906 7.87004 3.28906 8.13004 3.28906 8.39004V15.02C3.28906 15.29 3.39906 15.54 3.57906 15.73L8.25906 20.41C8.44906 20.6 8.70906 20.71 8.96906 20.71H15.5991C15.8691 20.71 16.1191 20.6 16.3091 20.42L17.6591 19.07L21.2991 22.71L22.7091 21.3L2.69906 1.29004ZM12.2891 6.71004C12.8391 6.71004 13.2891 7.16004 13.2891 7.71004V9.04004L20.4891 16.24L20.9991 15.73C21.1891 15.54 21.2891 15.29 21.2891 15.02V8.39004C21.2891 8.12004 21.1791 7.87004 20.9991 7.68004L16.3191 3.00004C16.1291 2.82004 15.8691 2.71004 15.6091 2.71004H8.96906C8.70906 2.71004 8.44906 2.82004 8.26906 3.00004L7.75906 3.51004L11.4491 7.20004C11.6191 6.91004 11.9291 6.71004 12.2891 6.71004ZM10.9891 15.71C10.9891 16.43 11.5691 17.01 12.2891 17.01C13.0091 17.01 13.5891 16.43 13.5891 15.71C13.5891 14.99 13.0091 14.41 12.2891 14.41C11.5691 14.41 10.9891 14.99 10.9891 15.71Z" fill="black"/>
</svg>
