<svg width="24" height="24" viewBox="0 0 24 24" fill="none" xmlns="http://www.w3.org/2000/svg">
        <path fill-rule="evenodd" clip-rule="evenodd" d="M16.0339 3.3L20.7139 7.98C20.8939 8.16 21.0039 8.42 20.9939 8.68V15.32C20.9939 15.59 20.8939 15.84 20.7039 16.03L16.0239 20.71C15.8339 20.89 15.5839 21 15.3139 21H8.68391C8.42391 21 8.16391 20.89 7.97391 20.7L3.29391 16.02C3.11391 15.83 3.00391 15.58 3.00391 15.31V8.68C3.00391 8.42 3.11391 8.16 3.29391 7.98L7.98391 3.29C8.16391 3.11 8.42391 3 8.68391 3H15.3239C15.5839 3 15.8439 3.11 16.0339 3.3ZM14.9039 19L19.0039 14.9V9.1L14.9039 5H9.10391L5.00391 9.1V14.9L9.10391 19H14.9039ZM12.0039 15C11.4516 15 11.0039 15.4477 11.0039 16C11.0039 16.5523 11.4516 17 12.0039 17C12.5562 17 13.0039 16.5523 13.0039 16C13.0039 15.4477 12.5562 15 12.0039 15ZM11.0039 8C11.0039 7.45 11.4539 7 12.0039 7C12.5539 7 13.0039 7.45 13.0039 8V13C13.0039 13.55 12.5539 14 12.0039 14C11.4539 14 11.0039 13.55 11.0039 13V8Z" fill="black"/>
</svg>
