<svg width="24" height="24" viewBox="0 0 24 24" fill="none" xmlns="http://www.w3.org/2000/svg">
        <path fill-rule="evenodd" clip-rule="evenodd" d="M15.3239 3H8.68391C8.42391 3 8.16391 3.11 7.98391 3.29L3.29391 7.98C3.11391 8.16 3.00391 8.42 3.00391 8.68V15.31C3.00391 15.58 3.11391 15.83 3.29391 16.02L7.97391 20.7C8.16391 20.89 8.42391 21 8.68391 21H15.3139C15.5839 21 15.8339 20.89 16.0239 20.71L20.7039 16.03C20.8939 15.84 20.9939 15.59 20.9939 15.32V8.68C20.9939 8.41 20.8839 8.16 20.7039 7.97L16.0239 3.29C15.8439 3.11 15.5839 3 15.3239 3ZM12.0039 17.3C11.2839 17.3 10.7039 16.72 10.7039 16C10.7039 15.28 11.2839 14.7 12.0039 14.7C12.7239 14.7 13.3039 15.28 13.3039 16C13.3039 16.72 12.7239 17.3 12.0039 17.3ZM11.0039 12C11.0039 12.55 11.4539 13 12.0039 13C12.5539 13 13.0039 12.55 13.0039 12V8C13.0039 7.45 12.5539 7 12.0039 7C11.4539 7 11.0039 7.45 11.0039 8V12Z" fill="black"/>

</svg>
