<svg width="24" height="24" viewBox="0 0 24 24" fill="none" xmlns="http://www.w3.org/2000/svg">
    <path fill-rule="evenodd" clip-rule="evenodd" d="M16.4593 3.25C16.4593 4.35 15.5593 5.25 14.4593 5.25C13.3593 5.25 12.4593 4.35 12.4593 3.25C12.4593 2.15 13.3593 1.25 14.4593 1.25C15.5593 1.25 16.4593 2.15 16.4593 3.25ZM11.8593 14.75L11.2893 17.25C11.0493 18.31 10.0093 18.98 8.94928 18.77L4.83928 17.95C4.29928 17.84 3.94928 17.31 4.05928 16.77V16.73C4.16928 16.19 4.69928 15.84 5.23928 15.95L9.15928 16.75L10.7593 8.65L8.95928 9.35V11.75C8.95928 12.3 8.50928 12.75 7.95928 12.75C7.40928 12.75 6.95928 12.3 6.95928 11.75V9.38C6.95928 8.57 7.43928 7.85 8.17928 7.53L12.1593 5.85C12.3093 5.85 12.4343 5.825 12.5593 5.8C12.6843 5.775 12.8093 5.75 12.9593 5.75C13.6593 5.75 14.2593 6.15 14.6593 6.75L15.6593 8.35C16.3293 9.53 17.5893 10.43 19.1093 10.68C19.5993 10.76 19.9593 11.17 19.9593 11.66C19.9593 12.27 19.4193 12.75 18.8193 12.66C17.0793 12.38 15.5293 11.49 14.4593 10.25L13.8593 13.25L15.3393 14.66C15.7393 15.04 15.9593 15.56 15.9593 16.11V21.75C15.9593 22.3 15.5093 22.75 14.9593 22.75C14.4093 22.75 13.9593 22.3 13.9593 21.75V16.75L11.8593 14.75Z" fill="black"/>

</svg>
