<svg width="24" height="24" viewBox="0 0 24 24" fill="none" xmlns="http://www.w3.org/2000/svg">
    <path fill-rule="evenodd" clip-rule="evenodd" d="M3.95233 19H4.00233C5.42233 19 6.70233 18.3 7.66233 17.36C7.85233 17.18 8.16233 17.18 8.35233 17.36C9.30233 18.3 10.5823 19 12.0023 19C13.4223 19 14.7023 18.3 15.6623 17.36C15.8523 17.17 16.1523 17.17 16.3523 17.36C17.3023 18.3 18.5823 19 20.0023 19H20.0523L21.9423 12.32C22.0223 12.06 22.0023 11.78 21.8823 11.54C21.7623 11.3 21.5423 11.12 21.2823 11.04L20.0023 10.62V6C20.0023 4.9 19.1023 4 18.0023 4H15.0023V2C15.0023 1.45 14.5523 1 14.0023 1H10.0023C9.45233 1 9.00233 1.45 9.00233 2V4H6.00233C4.90233 4 4.00233 4.9 4.00233 6V10.62L2.71233 11.04C2.45233 11.12 2.23233 11.3 2.11233 11.54C1.99233 11.78 1.96233 12.06 2.05233 12.32L3.95233 19ZM20.0023 21C18.7123 21 17.4223 20.59 16.2623 19.86C16.1023 19.76 15.8923 19.76 15.7323 19.86C13.4223 21.33 10.5723 21.33 8.26233 19.86C8.10233 19.76 7.89233 19.76 7.73233 19.86C6.58233 20.59 5.29233 21 4.00233 21H3.00233C2.45233 21 2.00233 21.45 2.00233 22C2.00233 22.55 2.45233 23 3.00233 23H4.00233C5.38233 23 6.74233 22.65 8.00233 22.01C10.5223 23.3 13.4823 23.3 16.0023 22.01C17.2623 22.66 18.6223 23 20.0023 23H21.0023C21.5523 23 22.0023 22.55 22.0023 22C22.0023 21.45 21.5523 21 21.0023 21H20.0023ZM17.0023 6H7.00233C6.45233 6 6.00233 6.45 6.00233 7V9.97L11.3723 8.2C11.7823 8.07 12.2123 8.07 12.6223 8.2L18.0023 9.97V7C18.0023 6.45 17.5523 6 17.0023 6Z" fill="black"/>

</svg>
