<svg width="24" height="24" viewBox="0 0 24 24" fill="none" xmlns="http://www.w3.org/2000/svg">
    <path fill-rule="evenodd" clip-rule="evenodd" d="M18.0508 5H21.9508C22.5408 5 23.0008 5.51 22.9408 6.1L21.4008 21.53C21.3008 22.35 20.6108 23 19.7708 23H18.0708L18.0508 15C18.0508 10.77 14.9508 8.16 11.2708 7.31L11.1508 6.1C11.1008 5.51 11.5608 5 12.1508 5H16.0508V2C16.0508 1.45 16.5008 1 17.0508 1C17.6008 1 18.0508 1.45 18.0508 2V5ZM15.0508 21C15.6008 21 16.0508 21.45 16.0508 22C16.0508 22.55 15.6008 23 15.0508 23H2.05078C1.50078 23 1.05078 22.55 1.05078 22C1.05078 21.45 1.50078 21 2.05078 21H15.0508ZM14.9508 15C15.5708 15 16.0608 14.44 15.9408 13.84C15.2908 10.61 11.9208 8.99 8.55078 8.99C5.18078 8.99 1.82078 10.61 1.16078 13.84C1.04078 14.44 1.54078 15 2.15078 15H14.9508ZM1.05078 18C1.05078 17.45 1.50078 17 2.05078 17H15.0508C15.6008 17 16.0508 17.45 16.0508 18C16.0508 18.55 15.6008 19 15.0508 19H2.05078C1.50078 19 1.05078 18.55 1.05078 18Z" fill="black"/>

</svg>
