<svg width="24" height="24" viewBox="0 0 24 24" fill="none" xmlns="http://www.w3.org/2000/svg">
    <path fill-rule="evenodd" clip-rule="evenodd" d="M4.04625 2.63526L21.3662 19.9553C21.7562 20.3453 21.7563 20.9753 21.3463 21.3653C20.9563 21.7553 20.3263 21.7553 19.9363 21.3653L16.8663 18.2953L13.1462 21.1853C12.4163 21.7453 11.4062 21.7453 10.6862 21.1853L3.92625 15.9253C3.41625 15.5253 3.41625 14.7553 3.92625 14.3553C4.28473 14.0753 4.78777 14.0753 5.14625 14.3553L11.2963 19.1353C11.6562 19.4153 12.1663 19.4153 12.5262 19.1353L15.4462 16.8653L14.0262 15.4453L13.1562 16.1253C12.4263 16.6853 11.4163 16.6853 10.6962 16.1253L3.93625 10.8653C3.42625 10.4653 3.42625 9.68526 3.93625 9.28526L6.15625 7.56526L2.63625 4.04526C2.24625 3.65526 2.24625 3.02526 2.63625 2.63526C2.82308 2.44801 3.07673 2.34277 3.34125 2.34277C3.60577 2.34277 3.85942 2.44801 4.04625 2.63526ZM19.9163 10.8653C20.4263 10.4653 20.4263 9.68526 19.9163 9.28526L13.1562 4.02526C12.4362 3.46526 11.4262 3.46526 10.6962 4.02526L9.33625 5.09526L17.2162 12.9753L19.9163 10.8653ZM19.9163 14.3553L19.9062 14.3453C19.5478 14.0653 19.0447 14.0653 18.6862 14.3453L18.6362 14.3853L20.0362 15.7853C20.4062 15.3753 20.3762 14.7153 19.9163 14.3553Z" fill="black"/>

</svg>
