<svg width="24" height="24" viewBox="0 0 24 24" fill="none" xmlns="http://www.w3.org/2000/svg">
    <path fill-rule="evenodd" clip-rule="evenodd" d="M19.9936 10.2551L13.2336 15.5151C12.5136 16.0851 11.4936 16.0851 10.7736 15.5251L4.01359 10.2651C3.50359 9.86512 3.50359 9.08512 4.01359 8.68512L10.7736 3.41512C11.5036 2.85512 12.5136 2.85512 13.2336 3.41512L19.9936 8.67512C20.5036 9.07512 20.5036 9.85512 19.9936 10.2551ZM11.3736 18.5351C11.7336 18.8151 12.2436 18.8151 12.6036 18.5351L18.7536 13.7451C19.1121 13.4651 19.6151 13.4651 19.9736 13.7451L19.9836 13.7551C20.4936 14.1551 20.4936 14.9251 19.9836 15.3251L13.2236 20.5851C12.4936 21.1451 11.4836 21.1451 10.7636 20.5851L4.00359 15.3251C3.49359 14.9251 3.49359 14.1551 4.00359 13.7551C4.36207 13.4751 4.86512 13.4751 5.22359 13.7551L11.3736 18.5351Z" fill="black"/>

</svg>
