<svg width="24" height="24" viewBox="0 0 24 24" fill="none" xmlns="http://www.w3.org/2000/svg">
    <path d="M21.5 14.6606C21.5 14.3006 21.31 13.9706 21.01 13.7706L13.5 9.08057V3.58057C13.5 2.75057 12.83 2.08057 12 2.08057C11.17 2.08057 10.5 2.75057 10.5 3.58057V9.08057L2.99 13.7706C2.69 13.9606 2.5 14.3006 2.5 14.6606C2.5 15.3606 3.18 15.8706 3.86 15.6606L10.5 13.5806V19.0806L8.7 20.4306C8.57 20.5206 8.5 20.6706 8.5 20.8306V21.4206C8.5 21.7506 8.82 21.9906 9.14 21.9006L12 21.0806L14.86 21.9006C15.18 21.9906 15.5 21.7506 15.5 21.4206V20.8306C15.5 20.6706 15.43 20.5206 15.3 20.4306L13.5 19.0806V13.5806L20.14 15.6606C20.82 15.8706 21.5 15.3606 21.5 14.6606Z" fill="black"/>

</svg>
