<svg width="24" height="24" viewBox="0 0 24 24" fill="none" xmlns="http://www.w3.org/2000/svg">
    <path fill-rule="evenodd" clip-rule="evenodd" d="M15 4.89258C15 6.55258 13.66 7.89258 12 7.89258C10.34 7.89258 9 6.55258 9 4.89258C9 3.23258 10.34 1.89258 12 1.89258C13.66 1.89258 15 3.23258 15 4.89258ZM5.32 8.09258C7.88 8.55258 10.18 9.74258 12 11.4426C13.82 9.74258 16.12 8.55258 18.68 8.09258C19.89 7.88258 21 8.84258 21 10.0726V16.9926C21 17.9526 20.23 18.8826 19.29 19.0126C16.77 19.3326 14.48 20.3826 12.61 21.9126C12.26 22.1926 11.69 22.1626 11.34 21.8726C9.48 20.3526 7.21 19.3226 4.71 19.0026C3.72 18.8726 3 17.9926 3 16.3126V10.0726C3 8.84258 4.11 7.88258 5.32 8.09258Z" fill="black"/>

</svg>
