<svg width="24" height="24" viewBox="0 0 24 24" fill="none" xmlns="http://www.w3.org/2000/svg">
    <path fill-rule="evenodd" clip-rule="evenodd" d="M19.8512 10.1421C18.2612 11.7321 16.1112 12.2321 14.5812 11.5221L13.1112 12.9921L19.2912 19.1721C19.6812 19.5621 19.6812 20.1921 19.2912 20.5821C18.9012 20.9721 18.2712 20.9721 17.8812 20.5821L11.7012 14.4021L5.52117 20.5621C5.13117 20.9521 4.50117 20.9521 4.11117 20.5621C3.72117 20.1721 3.72117 19.5421 4.11117 19.1521L13.1612 10.1021C12.4512 8.57215 12.9512 6.42214 14.5412 4.83214C16.4612 2.92215 19.2012 2.56214 20.6612 4.02214C22.1312 5.49215 21.7612 8.23215 19.8512 10.1421ZM10.6312 10.5021L7.80117 13.3321L3.61117 9.15214C2.38117 7.91215 2.12117 6.08214 2.83117 4.59214C3.13117 3.97214 3.96117 3.84214 4.44117 4.32214L10.6312 10.5021Z" fill="black"/>

</svg>
