<svg width="24" height="24" viewBox="0 0 24 24" fill="none" xmlns="http://www.w3.org/2000/svg">
    <path fill-rule="evenodd" clip-rule="evenodd" d="M9.65391 3.22999L14.6539 4.97999C14.8839 5.05999 15.1239 5.04999 15.3439 4.96999L18.2739 3.82999C19.5839 3.31999 20.9939 4.27999 20.9939 5.68999V17.54C20.9939 18.4 20.4439 19.17 19.6339 19.44L15.6439 20.78C15.2239 20.92 14.7639 20.92 14.3439 20.77L9.34391 19.02C9.12391 18.94 8.87391 18.94 8.65391 19.03L5.72391 20.17C4.41391 20.68 3.00391 19.72 3.00391 18.31V6.45999C3.00391 5.59999 3.55391 4.83999 4.36391 4.55999L8.35391 3.21999C8.77391 3.07999 9.23391 3.07999 9.65391 3.22999ZM9.00391 16.78L15.0039 18.89V7.21999L9.00391 5.10999V16.78Z" fill="black"/>

</svg>
