<svg width="24" height="24" viewBox="0 0 24 24" fill="none" xmlns="http://www.w3.org/2000/svg">
    <path fill-rule="evenodd" clip-rule="evenodd" d="M5 9.26514C5 5.39514 8.13 2.26514 12 2.26514C15.87 2.26514 19 5.39514 19 9.26514C19 13.4351 14.58 19.1851 12.77 21.3751C12.37 21.8551 11.64 21.8551 11.24 21.3751C9.42 19.1851 5 13.4351 5 9.26514ZM9.5 9.26514C9.5 10.6451 10.62 11.7651 12 11.7651C13.38 11.7651 14.5 10.6451 14.5 9.26514C14.5 7.88514 13.38 6.76514 12 6.76514C10.62 6.76514 9.5 7.88514 9.5 9.26514Z" fill="black"/>

</svg>
