<svg width="24" height="24" viewBox="0 0 24 24" fill="none" xmlns="http://www.w3.org/2000/svg">
    <path fill-rule="evenodd" clip-rule="evenodd" d="M19.4597 10C19.7697 10 19.9997 10.28 19.9597 10.59C19.7197 12.18 18.5397 13.46 16.9997 13.86V15H19.4597C19.7697 15 19.9997 15.28 19.9597 15.59C19.7197 17.18 18.5397 18.46 16.9997 18.86V20C16.9997 20.55 16.5497 21 15.9997 21H7.99968C7.44968 21 6.99968 20.55 6.99968 20V18.86C5.45968 18.46 4.27968 17.18 4.03968 15.59C3.99968 15.28 4.22968 15 4.53968 15H6.99968V13.86C5.45968 13.46 4.27968 12.18 4.03968 10.59C3.99968 10.28 4.22968 10 4.53968 10H6.99968V8.86C5.45968 8.46 4.27968 7.18 4.03968 5.59C3.99968 5.28 4.22968 5 4.53968 5H6.99968V4C6.99968 3.45 7.44968 3 7.99968 3H15.9997C16.5497 3 16.9997 3.45 16.9997 4V5H19.4597C19.7697 5 19.9997 5.28 19.9597 5.59C19.7197 7.18 18.5397 8.46 16.9997 8.86V10H19.4597ZM9.99968 17C9.99968 18.1 10.8897 19 11.9997 19C13.1097 19 13.9997 18.1 13.9997 17C13.9997 15.9 13.0997 15 11.9997 15C10.8897 15 9.99968 15.9 9.99968 17ZM11.9997 14C10.8897 14 9.99968 13.1 9.99968 12C9.99968 10.9 10.8897 10 11.9997 10C13.0997 10 13.9997 10.9 13.9997 12C13.9997 13.1 13.1097 14 11.9997 14ZM9.99968 7C9.99968 8.1 10.8897 9 11.9997 9C13.1097 9 13.9997 8.1 13.9997 7C13.9997 5.89 13.0997 5 11.9997 5C10.8897 5 9.99968 5.89 9.99968 7Z" fill="black"/>

</svg>
