<svg width="40" height="40" viewBox="0 0 40 40" fill="none" xmlns="http://www.w3.org/2000/svg">
<path d="M20 20C20.7956 20 21.5587 20.3161 22.1213 20.8787C22.6839 21.4413 23 22.2044 23 23C23 23.7956 22.6839 24.5587 22.1213 25.1213C21.5587 25.6839 20.7956 26 20 26C19.2044 26 18.4413 25.6839 17.8787 25.1213C17.3161 24.5587 17 23.7956 17 23C17 22.2044 17.3161 21.4413 17.8787 20.8787C18.4413 20.3161 19.2044 20 20 20ZM20 0C22.6264 0 25.2272 0.517315 27.6537 1.52241C30.0802 2.5275 32.285 4.00069 34.1421 5.85786C35.9993 7.71504 37.4725 9.91982 38.4776 12.3463C39.4827 14.7728 40 17.3736 40 20C40 25.3043 37.8929 30.3914 34.1421 34.1421C30.3914 37.8929 25.3043 40 20 40C17.3736 40 14.7728 39.4827 12.3463 38.4776C9.91982 37.4725 7.71504 35.9993 5.85786 34.1421C2.10714 30.3914 0 25.3043 0 20C0 14.6957 2.10714 9.60859 5.85786 5.85786C9.60859 2.10714 14.6957 0 20 0ZM20 28C21.44 28 22.8 28.3 24.08 29C25.36 29.6 26 30.4 26 31.34V34.82C28.68 33.62 30 32.16 30 30.4V21.6C30 20 29 18.7 26.9 17.6C24.8 16.52 22.5 16 20 16C17.5 16 15.2 16.52 13.1 17.6C11 18.7 10 20 10 21.6V30.4C10 32 11.06 33.38 13.26 34.44C15.44 35.5 17.68 36 20 36L22 35.84V31.82L20 32C18 32 16 31.6 14.1 30.78C14.34 30 15.06 29.38 16.26 28.82C17.44 28.26 18.68 28 20 28ZM20 4C18.6739 4 17.4021 4.52678 16.4645 5.46447C15.5268 6.40215 15 7.67392 15 9C15 10.3261 15.5268 11.5979 16.4645 12.5355C17.4021 13.4732 18.6739 14 20 14C21.3261 14 22.5979 13.4732 23.5355 12.5355C24.4732 11.5979 25 10.3261 25 9C25 7.67392 24.4732 6.40215 23.5355 5.46447C22.5979 4.52678 21.3261 4 20 4Z" fill="white"/>
</svg>
