<svg width="42" height="40" viewBox="0 0 42 40" fill="none" xmlns="http://www.w3.org/2000/svg">
<path d="M3.59695 31.1914C4.46101 33.8556 7.08718 35.5557 9.88937 35.5557H9.99937C10.2565 36.8104 10.9388 37.9379 11.9311 38.7477C12.9235 39.5575 14.1649 39.9998 15.4457 40C16.3598 40 17.2138 39.77 17.9699 39.374C18.2854 39.201 18.548 38.9454 18.7294 38.6347C18.9109 38.3239 19.0044 37.9697 19 37.6098V2.0515C19.004 1.59327 18.8501 1.14763 18.5641 0.789547C18.2782 0.431466 17.8776 0.182796 17.4299 0.0853726C16.4264 -0.109529 15.3867 0.0317704 14.4717 0.487399C12.9836 1.19945 12.1115 2.78955 12.1115 4.44366V4.55367C10.9979 4.32637 9.84129 4.44607 8.7978 4.89663C7.75431 5.34719 6.87409 6.10692 6.27587 7.07336C5.67765 8.0398 5.3902 9.16646 5.4523 10.3014C5.5144 11.4363 5.92305 12.5248 6.62315 13.4203C5.05521 13.6659 3.62671 14.4639 2.59537 15.6702C1.56403 16.8764 0.997778 18.4116 0.998781 19.9987C0.998781 22.3548 2.22086 24.421 4.06498 25.6231C3.20493 27.1652 2.92291 29.1153 3.59695 31.1914ZM35.377 13.4203C36.0771 12.5248 36.4858 11.4363 36.5479 10.3014C36.61 9.16646 36.3225 8.0398 35.7243 7.07336C35.1261 6.10692 34.2459 5.34719 33.2024 4.89663C32.1589 4.44607 31.0023 4.32637 29.8887 4.55367V4.44366C29.8887 2.79155 29.0146 1.19945 27.5265 0.487399C26.6122 0.0316349 25.5731 -0.109681 24.5703 0.0853726C24.1227 0.18314 23.7224 0.431902 23.4365 0.789907C23.1506 1.14791 22.9966 1.59337 23.0002 2.0515V37.6078C23.0002 38.3379 23.3843 39.0319 24.0323 39.372C24.7883 39.77 25.6404 40 26.5545 40C27.8355 39.9997 29.0772 39.5571 30.0696 38.7469C31.062 37.9368 31.7441 36.8088 32.0008 35.5537H32.1128C34.913 35.5537 37.5412 33.8536 38.4052 31.1894C39.0793 29.1133 38.7973 27.1632 37.9372 25.6211C38.8766 25.0141 39.6492 24.1816 40.1844 23.1996C40.7196 22.2175 41.0005 21.1171 41.0014 19.9987C41.0024 18.4116 40.4362 16.8764 39.4048 15.6702C38.3735 14.4639 36.945 13.6659 35.377 13.4203Z" fill="white"/>
 </svg>
