<svg width="50" height="40" viewBox="0 0 50 40" fill="none" xmlns="http://www.w3.org/2000/svg">
<path fill-rule="evenodd" clip-rule="evenodd" d="M0 20C2.3625 8.59 12.6575 0 25 0C37.3425 0 47.6375 8.59 50 20C47.6375 31.41 37.3425 40 25 40C12.6575 40 2.3625 31.41 0 20ZM25 32.5C28.3152 32.5 31.4946 31.183 33.8388 28.8388C36.183 26.4946 37.5 23.3152 37.5 20C37.5 16.6848 36.183 13.5054 33.8388 11.1612C31.4946 8.81696 28.3152 7.5 25 7.5C21.6848 7.5 18.5054 8.81696 16.1612 11.1612C13.817 13.5054 12.5 16.6848 12.5 20C12.5 23.3152 13.817 26.4946 16.1612 28.8388C18.5054 31.183 21.6848 32.5 25 32.5ZM25 27.5C26.9891 27.5 28.8968 26.7098 30.3033 25.3033C31.7098 23.8968 32.5 21.9891 32.5 20C32.5 18.0109 31.7098 16.1032 30.3033 14.6967C28.8968 13.2902 26.9891 12.5 25 12.5C23.0109 12.5 21.1032 13.2902 19.6967 14.6967C18.2902 16.1032 17.5 18.0109 17.5 20C17.5 21.9891 18.2902 23.8968 19.6967 25.3033C21.1032 26.7098 23.0109 27.5 25 27.5Z" fill="white"/>
</svg>
