<svg width="28" height="40" viewBox="0 0 28 40" fill="none" xmlns="http://www.w3.org/2000/svg">
<path d="M27.9977 14.0042C27.9989 11.3208 27.2288 8.69361 25.7792 6.43553C24.3295 4.17745 22.2613 2.38364 19.8209 1.26775C17.3806 0.151864 14.6709 -0.239071 12.0147 0.141508C9.35842 0.522087 6.86754 1.65814 4.83869 3.41436C2.80985 5.17058 1.32855 7.47294 0.571234 10.0472C-0.186084 12.6215 -0.187507 15.3593 0.567134 17.9343C1.32178 20.5094 2.80068 22.8133 4.8277 24.5716C6.85471 26.33 9.34442 27.4686 12.0003 27.8519V30.6682H7.33435C6.80401 30.6682 6.29538 30.8788 5.92037 31.2539C5.54535 31.6289 5.33467 32.1375 5.33467 32.6678C5.33467 33.1982 5.54535 33.7068 5.92037 34.0818C6.29538 34.4568 6.80401 34.6675 7.33435 34.6675H12.0003V38.0003C12.0003 38.5307 12.211 39.0393 12.586 39.4143C12.961 39.7893 13.4696 40 14 40C14.5303 40 15.0389 39.7893 15.4139 39.4143C15.789 39.0393 15.9996 38.5307 15.9996 38.0003V34.6675H20.6656C21.1959 34.6675 21.7045 34.4568 22.0795 34.0818C22.4545 33.7068 22.6652 33.1982 22.6652 32.6678C22.6652 32.1375 22.4545 31.6289 22.0795 31.2539C21.7045 30.8788 21.1959 30.6682 20.6656 30.6682H15.9996V27.8519C19.33 27.3713 22.3758 25.707 24.5792 23.1639C26.7826 20.6208 27.9962 17.369 27.9977 14.0042ZM4.00155 14.0042C4.00155 12.0267 4.58795 10.0936 5.68659 8.44936C6.78523 6.80513 8.34676 5.52361 10.1737 4.76685C12.0007 4.0101 14.011 3.8121 15.9505 4.19789C17.89 4.58368 19.6716 5.53593 21.0699 6.93424C22.4682 8.33254 23.4204 10.1141 23.8062 12.0536C24.192 13.9931 23.994 16.0034 23.2373 17.8304C22.4805 19.6574 21.199 21.2189 19.5548 22.3175C17.9105 23.4162 15.9774 24.0026 14 24.0026C11.3482 24.0026 8.80508 22.9492 6.93002 21.0741C5.05495 19.199 4.00155 16.6559 4.00155 14.0042Z" fill="white"/>
</svg>

