<svg width="44" height="40" viewBox="0 0 44 40" fill="none" xmlns="http://www.w3.org/2000/svg">
<path fill-rule="evenodd" clip-rule="evenodd" d="M4.6011 24.0003C7.87303 28.9069 13.4116 34.3228 22.0007 40C30.5899 34.3228 36.1285 28.9069 39.4004 24.0003H32.6672C32.4009 24.0003 32.1408 23.9205 31.9202 23.7712C31.6997 23.622 31.5289 23.4102 31.4299 23.163L27.5446 13.4512L23.2834 28.3656C23.2072 28.633 23.0493 28.87 22.8317 29.0433C22.6142 29.2165 22.3479 29.3174 22.0701 29.3318C21.7924 29.3462 21.5171 29.2734 21.2828 29.1236C21.0485 28.9738 20.8669 28.7544 20.7634 28.4962L16.3715 17.5151L12.4436 23.4083C12.3217 23.5906 12.1566 23.74 11.9631 23.8433C11.7696 23.9466 11.5536 24.0005 11.3343 24.0003H4.6011ZM3.01179 21.3337C-5.80136 4.48072 12.4276 -5.33242 21.5314 3.04875C21.6914 3.19541 21.8487 3.34741 22.0007 3.50474C22.1512 3.34755 22.3078 3.19633 22.4701 3.05141C31.5739 -5.33242 49.8028 4.48072 40.987 21.3337H33.5658L28.5686 8.83796C28.4652 8.5798 28.2836 8.36044 28.0493 8.21061C27.815 8.06077 27.5397 7.98796 27.2619 8.00236C26.9842 8.01676 26.7179 8.11766 26.5003 8.29093C26.2828 8.46419 26.1249 8.70115 26.0487 8.96863L21.7901 23.883L17.9048 14.1712C17.8143 13.9459 17.6641 13.7496 17.4702 13.6034C17.2763 13.4573 17.0462 13.3669 16.8047 13.3419C16.5632 13.3169 16.3195 13.3583 16.0998 13.4617C15.8802 13.5651 15.6929 13.7265 15.5582 13.9285L10.6196 21.3337H3.01446H3.01179Z" fill="white"/>
</svg>
