<svg width="70" height="40" viewBox="0 0 70 40" fill="none" xmlns="http://www.w3.org/2000/svg">
<path fill-rule="evenodd" clip-rule="evenodd" d="M0.217285 19.1304C5.43468 9.64346 19.6956 -4.77394 34.9999 2.05563C50.6521 -5.53394 64.5651 9.64346 69.7825 19.1304C64.5651 26.72 50.3043 40 34.9999 40C19.6956 40 5.43468 26.72 0.217285 19.1304ZM9.45207 18.3009C14.8503 16.4748 24.8834 13.913 34.9999 13.913C44.9947 13.913 54.913 16.4156 60.3564 18.2365C61.1512 18.5009 61.106 19.6243 60.3043 19.8643L60.2608 19.8783C54.9999 21.4609 45.3999 24.3478 34.9999 24.3478C24.426 24.3478 14.6816 21.5217 9.48338 19.873C8.70425 19.6261 8.67816 18.5617 9.45033 18.3009H9.45207Z" fill="white"/>
</svg>
