<svg width="46" height="40" viewBox="0 0 46 40" fill="none" xmlns="http://www.w3.org/2000/svg">
<path fill-rule="evenodd" clip-rule="evenodd" d="M24.7469 0.716135C24.8125 0.861708 24.8487 1.01878 24.8536 1.17838C24.8584 1.33797 24.8318 1.49695 24.7751 1.64624C24.7185 1.79552 24.633 1.93217 24.5235 2.04838C24.414 2.16459 24.2827 2.25808 24.137 2.3235C23.0729 2.80257 22.1692 3.57796 21.5341 4.55697C20.8989 5.53598 20.5591 6.6772 20.5554 7.84419V7.88672C20.5632 9.43761 21.164 10.9268 22.2345 12.049C23.305 13.1712 24.7642 13.8415 26.313 13.9224C27.8618 14.0033 29.3829 13.4888 30.5645 12.4843C31.7462 11.4798 32.4989 10.0613 32.6683 8.5197C32.7026 8.19909 32.8629 7.90524 33.1139 7.7028C33.3649 7.50036 33.686 7.40591 34.0066 7.44023C34.3272 7.47454 34.621 7.63482 34.8235 7.88579C35.0259 8.13676 35.1204 8.45787 35.0861 8.77848C34.8991 10.5265 34.173 12.1731 33.0085 13.49C34.8007 13.8949 36.4137 14.8693 37.6058 16.2674C37.7095 16.3887 37.7883 16.5293 37.8377 16.6811C37.8871 16.8329 37.9061 16.9929 37.8936 17.152C37.8812 17.3112 37.8375 17.4663 37.7651 17.6085C37.6926 17.7508 37.5929 17.8773 37.4716 17.9811C37.3503 18.0848 37.2097 18.1636 37.0579 18.2129C36.9061 18.2623 36.7461 18.2813 36.587 18.2688C36.4278 18.2564 36.2727 18.2127 36.1305 18.1403C35.9882 18.0679 35.8616 17.9681 35.7579 17.8468C34.7523 16.6638 33.3318 15.9108 31.7883 15.7424C30.2448 15.574 28.6954 16.003 27.4584 16.9413C26.2213 17.8797 25.3905 19.2561 25.1366 20.7878C24.8827 22.3196 25.2249 23.8905 26.0931 25.1778L26.1016 25.1875C26.2346 25.3605 26.3185 25.5661 26.3446 25.7828C26.7491 25.8338 27.1355 26.0294 27.4234 26.3611C27.7004 26.6819 27.9519 27.0087 28.1791 27.3416C28.6201 27.9855 28.5618 28.8214 28.0929 29.396C28.4564 29.3887 28.8129 29.497 29.1109 29.7053C29.409 29.9136 29.6332 30.2112 29.7512 30.5551C30.0064 31.2998 30.2032 32.0276 30.3709 32.6885C30.4498 32.9969 30.4413 33.3211 30.3465 33.6249C30.2516 33.9287 30.0742 34.2002 29.8339 34.4089C30.4085 34.4915 30.9273 34.8621 31.1715 35.4343C31.3963 35.9604 31.6113 36.2167 31.8106 36.3576C32.1313 36.5836 32.35 36.8995 32.4581 37.247C32.7291 36.8898 33.1397 36.6395 33.6208 36.5812C33.8808 36.5496 34.1712 36.501 34.4944 36.4305C34.9876 36.3224 35.4773 36.439 35.8575 36.7112C35.9902 36.5216 36.1744 36.374 36.3885 36.286L36.7214 36.1462C37.0266 36.0018 37.2994 35.7971 37.5235 35.5445C37.7475 35.2918 37.9181 34.9965 38.025 34.6762C38.2668 33.9472 38.2461 32.8902 37.5487 31.538C37.472 31.3959 37.4244 31.24 37.4087 31.0793C37.393 30.9186 37.4094 30.7564 37.4571 30.6022C37.5047 30.4479 37.5827 30.3047 37.6863 30.1809C37.79 30.0571 37.9172 29.9552 38.0607 29.8812C38.2042 29.8072 38.361 29.7625 38.5219 29.7497C38.6829 29.737 38.8447 29.7564 38.9981 29.8069C39.1514 29.8575 39.2931 29.938 39.415 30.044C39.5368 30.1499 39.6363 30.2791 39.7077 30.4239C40.2034 31.3837 40.4865 32.3265 40.5703 33.2207C41.309 32.3411 42.0914 31.1528 42.7292 29.5856C42.7895 29.4377 42.8782 29.3032 42.9904 29.1897C43.1027 29.0762 43.2361 28.9859 43.3832 28.924C43.5304 28.862 43.6882 28.8297 43.8479 28.8287C44.0075 28.8278 44.1657 28.8583 44.3135 28.9186C44.4614 28.9788 44.5959 29.0676 44.7094 29.1798C44.8229 29.292 44.9132 29.4255 44.9751 29.5726C45.0371 29.7197 45.0694 29.8776 45.0704 30.0372C45.0713 30.1968 45.0408 30.355 44.9805 30.5028C44.22 32.3678 43.2748 33.7953 42.3648 34.8608C42.9564 34.9301 43.5797 35.0759 44.2528 35.3104C44.5573 35.4159 44.8074 35.6381 44.9481 35.928C45.0888 36.2179 45.1085 36.5519 45.003 36.8564C44.8975 37.1609 44.6753 37.411 44.3854 37.5517C44.0954 37.6924 43.7615 37.7121 43.457 37.6066C42.2481 37.1862 41.3892 37.1692 40.5521 37.3442C39.7721 37.5058 39.0055 37.8253 37.9351 38.2736L37.7079 38.3684C37.5676 38.4337 37.4245 38.4929 37.279 38.5458C37.0325 38.6385 36.7625 38.6483 36.51 38.5737C36.3435 39.1629 35.8648 39.6428 35.2246 39.7826C34.8091 39.8737 34.4105 39.9417 34.0291 39.9879C33.6312 40.0354 33.2293 39.9422 32.8929 39.7246C32.5565 39.5069 32.3069 39.1784 32.1872 38.796C31.9183 39.1506 31.5222 39.3869 31.0824 39.4549C30.6426 39.5229 30.1936 39.4173 29.8302 39.1605C28.9227 38.519 28.3808 37.6358 28.0163 36.7829C27.8734 36.4488 27.8402 36.0781 27.9214 35.724C28.0026 35.3699 28.1941 35.0506 28.4683 34.8122C28.1319 34.7645 27.8173 34.618 27.5643 34.3913C27.3113 34.1647 27.1312 33.868 27.0468 33.539C26.8917 32.9083 26.7113 32.2842 26.5061 31.668C26.4114 31.392 26.3887 31.0964 26.4401 30.8091C26.4916 30.5219 26.6155 30.2525 26.8002 30.0266C26.2413 30.0375 25.6873 29.7751 25.3483 29.2794C25.1882 29.0458 25.015 28.8215 24.8295 28.6075C24.6368 28.3853 24.5046 28.1173 24.4454 27.8292C24.3863 27.5411 24.4022 27.2427 24.4918 26.9625C24.3527 26.8754 24.2328 26.7609 24.1394 26.626L24.1273 26.6053C23.5595 25.8778 22.8332 25.2895 22.0037 24.8853C21.1741 24.481 20.2632 24.2715 19.3404 24.2726C17.3965 24.2726 15.6664 25.1838 14.5535 26.6053C14.4711 26.7249 14.3856 26.8424 14.2972 26.9576C13.6222 27.9591 13.2625 29.1397 13.2645 30.3473C13.2645 31.5052 13.5877 32.5828 14.1478 33.5025C14.3089 33.7775 14.3555 34.1047 14.2777 34.4137C14.1998 34.7227 14.0036 34.9888 13.7314 35.1545C13.4592 35.3203 13.1328 35.3724 12.8225 35.2998C12.5122 35.2271 12.2429 35.0354 12.0726 34.7661C11.1318 33.2232 10.7091 31.4199 10.8662 29.6196C9.2732 30.293 7.51325 30.4667 5.81934 30.1177C5.50372 30.0528 5.22682 29.8651 5.04956 29.5961C4.8723 29.327 4.80919 28.9985 4.87411 28.6829C4.93904 28.3672 5.12669 28.0904 5.39577 27.9131C5.66486 27.7358 5.99334 27.6727 6.30896 27.7376C7.41844 27.969 8.57056 27.8849 9.63463 27.4947C10.6987 27.1045 11.6321 26.4239 12.329 25.5301C12.4128 25.4098 12.4979 25.292 12.5866 25.1778C13.4437 23.9037 13.7865 22.3524 13.5461 20.8358C13.3057 19.3192 12.4999 17.9499 11.2907 17.0035C10.0816 16.057 8.5589 15.6035 7.02896 15.7343C5.49902 15.865 4.07537 16.5703 3.04441 17.7083C2.82772 17.9469 2.52511 18.0897 2.20317 18.1052C1.88122 18.1206 1.56631 18.0076 1.3277 17.7909C1.08909 17.5742 0.946343 17.2716 0.93085 16.9497C0.915356 16.6277 1.02839 16.3128 1.24508 16.0742C2.41972 14.7777 3.9658 13.8753 5.67233 13.49C4.54491 12.2153 3.82734 10.6307 3.613 8.9425C3.57724 8.62516 3.66787 8.30649 3.86527 8.05545C4.06268 7.80442 4.35099 7.6412 4.66781 7.60112C4.98464 7.56104 5.30452 7.64731 5.55822 7.84128C5.81192 8.03524 5.97905 8.3213 6.02345 8.63755C6.22248 10.165 6.99425 11.5599 8.18263 12.54C9.37101 13.52 10.8873 14.0121 12.4247 13.9168C13.9621 13.8214 15.406 13.1456 16.4641 12.0261C17.5222 10.9066 18.1156 9.42708 18.1243 7.88672V7.84419C18.1206 6.69633 17.7919 5.57299 17.176 4.60431C16.5602 3.63563 15.6825 2.86125 14.6447 2.37088C14.5004 2.3026 14.3711 2.20657 14.2639 2.08829C14.1568 1.97 14.0741 1.83178 14.0204 1.68151C13.9667 1.53123 13.9431 1.37185 13.951 1.21247C13.9589 1.05308 13.9981 0.896814 14.0664 0.752583C14.1346 0.608351 14.2307 0.478982 14.349 0.371862C14.4672 0.264741 14.6055 0.181967 14.7557 0.128266C14.906 0.0745646 15.0654 0.0509877 15.2248 0.0588813C15.3842 0.0667749 15.5404 0.105984 15.6847 0.174271C17.202 0.893684 18.4735 2.0444 19.3404 3.48256C20.235 1.99807 21.56 0.820898 23.1395 0.107449C23.285 0.0418205 23.442 0.00550508 23.6016 0.000578812C23.7611 -0.00434745 23.9201 0.0222114 24.0693 0.0787384C24.2186 0.135265 24.3553 0.220652 24.4715 0.33002C24.5878 0.439387 24.6814 0.570591 24.7469 0.716135ZM19.3404 20.0179C19.5836 20.0242 19.8256 19.9817 20.0521 19.893C20.2787 19.8042 20.4851 19.6711 20.6594 19.5013C20.8336 19.3315 20.9721 19.1285 21.0666 18.9044C21.1612 18.6802 21.2099 18.4394 21.2099 18.1961C21.2099 17.9528 21.1612 17.712 21.0666 17.4878C20.9721 17.2637 20.8336 17.0607 20.6594 16.8909C20.4851 16.7211 20.2787 16.588 20.0521 16.4992C19.8256 16.4105 19.5836 16.368 19.3404 16.3743C18.8571 16.3743 18.3935 16.5663 18.0518 16.9081C17.71 17.2498 17.518 17.7134 17.518 18.1967C17.518 18.68 17.71 19.1436 18.0518 19.4853C18.3935 19.8271 18.8571 20.0191 19.3404 20.0191V20.0179Z" fill="white"/>
</svg>
