<svg width="24" height="24" viewBox="0 0 24 24" fill="none" xmlns="http://www.w3.org/2000/svg">
    <path fill-rule="evenodd" clip-rule="evenodd" d="M15 6.12147V11.2915H19C20.1 11.2915 21 12.1915 21 13.2915V19.2915C21 20.3915 20.1 21.2915 19 21.2915H5C3.9 21.2915 3 20.3915 3 19.2915V9.29147C3 8.19147 3.9 7.29147 5 7.29147H9V6.12147C9 5.59147 9.21 5.08147 9.59 4.70147L11.29 3.00147C11.4768 2.81422 11.7305 2.70898 11.995 2.70898C12.2595 2.70898 12.5132 2.81422 12.7 3.00147L14.41 4.71147C14.79 5.08147 15 5.59147 15 6.12147ZM5 19.2915H7V17.2915H5V19.2915ZM7 15.2915H5V13.2915H7V15.2915ZM5 11.2915H7V9.29147H5V11.2915ZM13 19.2915H11V17.2915H13V19.2915ZM11 15.2915H13V13.2915H11V15.2915ZM13 11.2915H11V9.29147H13V11.2915ZM11 7.29147H13V5.29147H11V7.29147ZM19 19.2915H17V17.2915H19V19.2915ZM17 15.2915H19V13.2915H17V15.2915Z" fill="black"/>

</svg>
