<svg width="24" height="24" viewBox="0 0 24 24" fill="none" xmlns="http://www.w3.org/2000/svg">
    <path fill-rule="evenodd" clip-rule="evenodd" d="M19.2905 17.04L18.0005 15.75V10.75C18.0005 7.68 16.3605 5.11 13.5005 4.43V3.75C13.5005 2.92 12.8305 2.25 12.0005 2.25C11.1705 2.25 10.5005 2.92 10.5005 3.75V4.43C7.63054 5.11 6.00054 7.67 6.00054 10.75V15.75L4.71054 17.04C4.08054 17.67 4.52054 18.75 5.41054 18.75H18.5805C19.4805 18.75 19.9205 17.67 19.2905 17.04ZM8.00054 16.75V10.75C8.00054 8.27 9.51054 6.25 12.0005 6.25C14.4905 6.25 16.0005 8.27 16.0005 10.75V16.75H8.00054ZM14.0005 19.75C14.0005 20.85 13.1005 21.75 12.0005 21.75C10.8905 21.75 10.0005 20.85 10.0005 19.75H14.0005Z" fill="black"/>

</svg>
