<svg width="24" height="24" viewBox="0 0 24 24" fill="none" xmlns="http://www.w3.org/2000/svg">
    <path fill-rule="evenodd" clip-rule="evenodd" d="M17.3047 10.75C17.3047 7.68 15.6647 5.11 12.8047 4.43V3.75C12.8047 2.92 12.1347 2.25 11.3047 2.25C10.4747 2.25 9.80469 2.92 9.80469 3.75V4.43C9.6026 4.48052 9.40761 4.55231 9.21971 4.62149L9.21969 4.6215L9.11469 4.66L17.3047 12.85V10.75ZM11.3047 21.75C12.4047 21.75 13.3047 20.85 13.3047 19.75H9.30469C9.30469 20.85 10.1947 21.75 11.3047 21.75ZM3.30469 4.51L4.71469 3.1L20.6947 19.08L19.2847 20.49L17.5447 18.75H4.71469C3.82469 18.75 3.38469 17.67 4.01469 17.04L5.30469 15.75V10.75C5.30469 9.48 5.59469 8.32 6.11469 7.32L3.30469 4.51Z" fill="black"/>

</svg>
