<svg width="24" height="24" viewBox="0 0 24 24" fill="none" xmlns="http://www.w3.org/2000/svg">
    <path fill-rule="evenodd" clip-rule="evenodd" d="M14.8084 8.87439L19.6484 9.29439C20.5284 9.36439 20.8784 10.4644 20.2084 11.0444L16.5384 14.2244L17.6384 18.9544C17.8384 19.8144 16.9084 20.4944 16.1484 20.0344L11.9984 17.5244L7.84836 20.0244C7.08836 20.4844 6.15836 19.8044 6.35836 18.9444L7.45836 14.2244L3.78836 11.0444C3.11836 10.4644 3.47836 9.36439 4.35836 9.29439L9.18836 8.88439L11.0784 4.42439C11.4184 3.61439 12.5784 3.61439 12.9184 4.42439L14.8084 8.87439ZM8.23836 17.9244L11.9984 15.6544L15.7684 17.9344L14.7684 13.6544L18.0884 10.7744L13.7084 10.3944L11.9984 6.35439L10.2984 10.3844L5.91836 10.7644L9.23836 13.6444L8.23836 17.9244Z" fill="black"/>

</svg>
