<svg width="24" height="24" viewBox="0 0 24 24" fill="none" xmlns="http://www.w3.org/2000/svg">
    <path fill-rule="evenodd" clip-rule="evenodd" d="M7.40812 8.29186L12.9481 2.75186C13.5281 2.16186 14.4681 2.16186 15.0581 2.74186C15.4181 3.10186 15.5681 3.61186 15.4681 4.11186L14.5181 8.69186H20.1681C22.3181 8.69186 23.7681 10.8919 22.9281 12.8719L19.6681 20.4819C19.3481 21.2119 18.6281 21.6919 17.8281 21.6919H8.82812C7.72813 21.6919 6.82812 20.7919 6.82812 19.6919V9.70186C6.82812 9.17186 7.03813 8.66186 7.40812 8.29186ZM4.82812 19.6919C4.82812 20.7919 3.92812 21.6919 2.82812 21.6919C1.72812 21.6919 0.828125 20.7919 0.828125 19.6919V11.6919C0.828125 10.5919 1.72812 9.69186 2.82812 9.69186C3.92812 9.69186 4.82812 10.5919 4.82812 11.6919V19.6919Z" fill="black"/>

</svg>
