<svg width="24" height="24" viewBox="0 0 24 24" fill="none" xmlns="http://www.w3.org/2000/svg">
    <path fill-rule="evenodd" clip-rule="evenodd" d="M16.5788 15.7081L11.0488 21.2481C10.4688 21.8381 9.52884 21.8381 8.93884 21.2581C8.57884 20.8981 8.42884 20.3881 8.52884 19.8881L9.47884 15.3081H3.82884C1.67884 15.3081 0.228845 13.1081 1.07884 11.1281L4.33884 3.51811C4.64884 2.78811 5.36884 2.30811 6.16884 2.30811H15.1588C16.2588 2.30811 17.1588 3.20811 17.1588 4.30811V14.2981C17.1588 14.8281 16.9488 15.3381 16.5788 15.7081ZM19.1688 4.30811C19.1688 3.20811 20.0688 2.30811 21.1688 2.30811C22.2688 2.30811 23.1688 3.20811 23.1688 4.30811V12.3081C23.1688 13.4081 22.2688 14.3081 21.1688 14.3081C20.0688 14.3081 19.1688 13.4081 19.1688 12.3081V4.30811Z" fill="black"/>

</svg>
