<svg width="24" height="24" viewBox="0 0 24 24" fill="none" xmlns="http://www.w3.org/2000/svg">
    <path fill-rule="evenodd" clip-rule="evenodd"
        d="M3.17 6.02141L11.07 1.86141C11.65 1.55141 12.35 1.55141 12.93 1.86141L20.83 6.02141C21.24 6.23141 21.5 6.66141 21.5 7.12141C21.5 7.81141 20.94 8.37141 20.26 8.37141H3.75C3.06 8.37141 2.5 7.81141 2.5 7.12141C2.5 6.66141 2.76 6.23141 3.17 6.02141ZM4.5 11.8714V15.8714C4.5 16.7014 5.17 17.3714 6 17.3714C6.83 17.3714 7.5 16.7014 7.5 15.8714V11.8714C7.5 11.0414 6.83 10.3714 6 10.3714C5.17 10.3714 4.5 11.0414 4.5 11.8714ZM10.5 11.8714V15.8714C10.5 16.7014 11.17 17.3714 12 17.3714C12.83 17.3714 13.5 16.7014 13.5 15.8714V11.8714C13.5 11.0414 12.83 10.3714 12 10.3714C11.17 10.3714 10.5 11.0414 10.5 11.8714ZM21.5 20.8714C21.5 21.7014 20.83 22.3714 20 22.3714H4C3.17 22.3714 2.5 21.7014 2.5 20.8714C2.5 20.0414 3.17 19.3714 4 19.3714H20C20.83 19.3714 21.5 20.0414 21.5 20.8714ZM16.5 11.8714V15.8714C16.5 16.7014 17.17 17.3714 18 17.3714C18.83 17.3714 19.5 16.7014 19.5 15.8714V11.8714C19.5 11.0414 18.83 10.3714 18 10.3714C17.17 10.3714 16.5 11.0414 16.5 11.8714Z"
        fill="black" />
</svg>
