<svg width="24" height="24" viewBox="0 0 24 24" fill="none" xmlns="http://www.w3.org/2000/svg">
    <path
        d="M12.4716 3.24687C10.4616 1.23687 7.4516 0.826868 5.0316 2.00687L8.6616 5.63687C9.0516 6.02687 9.0516 6.65687 8.6616 7.04687L7.0716 8.63687C6.6816 9.03687 6.0516 9.03687 5.6616 8.63687L2.0316 5.00687C0.861595 7.43687 1.2716 10.4269 3.2816 12.4369C5.1416 14.2969 7.8616 14.7869 10.1716 13.9169L18.1316 21.8769C19.1616 22.9069 20.8216 22.9069 21.8416 21.8769C22.8716 20.8469 22.8716 19.1869 21.8416 18.1669L13.9216 10.2369C14.8416 7.89687 14.3616 5.13687 12.4716 3.24687Z"
        fill="black" />
</svg>
