<svg width="24" height="24" viewBox="0 0 24 24" fill="none" xmlns="http://www.w3.org/2000/svg">
    <path fill-rule="evenodd" clip-rule="evenodd"
        d="M19.2005 12.0002L15.3005 15.9002C15.1133 16.0851 15.008 16.3372 15.008 16.6002C15.008 16.8633 15.1133 17.1154 15.3005 17.3002C15.6905 17.6902 16.3105 17.6902 16.7005 17.3002L21.2905 12.7002C21.6805 12.3102 21.6805 11.6802 21.2905 11.2902L16.7005 6.70021C16.3105 6.31021 15.6905 6.31021 15.3005 6.70021C15.1133 6.88507 15.008 7.13716 15.008 7.40021C15.008 7.66326 15.1133 7.91536 15.3005 8.10021L19.2005 12.0002ZM4.80047 12.0002L8.70047 15.9002C9.09047 16.2902 9.09047 16.9102 8.70047 17.3002C8.31047 17.6902 7.69047 17.6902 7.30047 17.3002L2.71047 12.7002C2.32047 12.3102 2.32047 11.6802 2.71047 11.2902L7.30047 6.70021C7.48532 6.51307 7.73742 6.40773 8.00047 6.40773C8.26352 6.40773 8.51561 6.51307 8.70047 6.70021C9.09047 7.09021 9.09047 7.71021 8.70047 8.10021L4.80047 12.0002Z"
        fill="black" />
</svg>
