<svg width="24" height="24" viewBox="0 0 24 24" fill="none" xmlns="http://www.w3.org/2000/svg">
    <path fill-rule="evenodd" clip-rule="evenodd"
        d="M21.5055 5.99439L11.6255 15.8744L8.14547 12.4044C7.95864 12.2171 7.70499 12.1119 7.44047 12.1119C7.17595 12.1119 6.9223 12.2171 6.73547 12.4044C6.34547 12.7944 6.34547 13.4244 6.73547 13.8144L10.9155 17.9944C11.3055 18.3844 11.9355 18.3844 12.3255 17.9944L22.9155 7.41439C23.3055 7.02439 23.3055 6.39439 22.9155 6.00439H22.9055C22.5255 5.60439 21.8955 5.60439 21.5055 5.99439ZM17.2655 6.00439C17.0786 5.81713 16.825 5.7119 16.5605 5.7119C16.296 5.7119 16.0423 5.81713 15.8555 6.00439L10.2155 11.6444L11.6255 13.0544L17.2655 7.40439C17.6455 7.02439 17.6455 6.38439 17.2655 6.00439ZM5.26547 18.0044L1.08547 13.8244C0.695469 13.4344 0.695469 12.7944 1.08547 12.4044C1.2723 12.2171 1.52595 12.1119 1.79047 12.1119C2.05499 12.1119 2.30864 12.2171 2.49547 12.4044L7.37547 17.3044L6.67547 18.0044C6.28547 18.3944 5.65547 18.3944 5.26547 18.0044Z"
        fill="black" />

</svg>
