<svg width="24" height="24" viewBox="0 0 24 24" fill="none" xmlns="http://www.w3.org/2000/svg">
    <path fill-rule="evenodd" clip-rule="evenodd"
        d="M8.42922 13.4452L18.3592 3.51518C19.1392 2.73518 20.3992 2.73518 21.1892 3.51518L22.5892 4.91518C23.3692 5.69518 23.3692 6.96518 22.5892 7.74518L9.83922 20.4852C9.05922 21.2652 7.78922 21.2652 7.00922 20.4852L1.40922 14.8852C0.629219 14.1052 0.629219 12.8352 1.40922 12.0552L2.80922 10.6552C3.58922 9.87518 4.85922 9.87518 5.63922 10.6552L8.42922 13.4452ZM20.4692 7.03518C20.8592 6.64518 20.8592 6.02518 20.4692 5.63518C20.0792 5.24518 19.4592 5.24518 19.0692 5.63518L8.42922 16.2752L4.92922 12.7752C4.53922 12.3852 3.91922 12.3852 3.52922 12.7752C3.34207 12.96 3.23674 13.2121 3.23674 13.4752C3.23674 13.7382 3.34207 13.9903 3.52922 14.1752L7.72922 18.3752C8.11922 18.7652 8.73922 18.7652 9.12922 18.3752L20.4692 7.03518Z"
        fill="black" />


</svg>
