<svg width="24" height="24" viewBox="0 0 24 24" fill="none" xmlns="http://www.w3.org/2000/svg">
    <path fill-rule="evenodd" clip-rule="evenodd"
        d="M12.0002 5.26741C13.7602 3.20741 17.0202 2.36741 19.6602 4.16741C21.0602 5.12741 21.9402 6.74741 22.0002 8.44741C22.1302 12.3274 18.7002 15.4374 13.4502 20.1974L13.3402 20.2974C12.5802 20.9974 11.4102 20.9974 10.6502 20.3074L10.5502 20.2174L10.4898 20.1625C5.27384 15.4235 1.86075 12.3225 2.00021 8.45741C2.06021 6.74741 2.94021 5.12741 4.34021 4.16741C6.98021 2.35741 10.2402 3.20741 12.0002 5.26741ZM12.0002 18.8274L12.1002 18.7274C16.8602 14.4174 20.0002 11.5674 20.0002 8.67741C20.0002 6.67741 18.5002 5.17741 16.5002 5.17741C14.9602 5.17741 13.4602 6.16741 12.9402 7.53741H11.0702C10.5402 6.16741 9.04021 5.17741 7.50021 5.17741C5.50021 5.17741 4.00021 6.67741 4.00021 8.67741C4.00021 11.5674 7.14021 14.4174 11.9002 18.7274L12.0002 18.8274Z"
        fill="black" />

</svg>
