<svg width="24" height="24" viewBox="0 0 24 24" fill="none" xmlns="http://www.w3.org/2000/svg">
    <path fill-rule="evenodd" clip-rule="evenodd"
        d="M17.8132 4.47C17.7332 4.47 17.6532 4.45 17.5832 4.41C15.6632 3.42 14.0032 3 12.0132 3C10.0332 3 8.15316 3.47 6.44316 4.41C6.20316 4.54 5.90316 4.45 5.76316 4.21C5.63316 3.97 5.72316 3.66 5.96316 3.53C7.82316 2.52 9.86316 2 12.0132 2C14.1432 2 16.0032 2.47 18.0432 3.52C18.2932 3.65 18.3832 3.95 18.2532 4.19C18.1632 4.37 17.9932 4.47 17.8132 4.47ZM3.50316 9.72C3.40316 9.72 3.30316 9.69 3.21316 9.63C2.98316 9.47 2.93316 9.16 3.09316 8.93C4.08316 7.53 5.34316 6.43 6.84316 5.66C9.98316 4.04 14.0032 4.03 17.1532 5.65C18.6532 6.42 19.9132 7.51 20.9032 8.9C21.0632 9.12 21.0132 9.44 20.7832 9.6C20.5532 9.76 20.2432 9.71 20.0832 9.48C19.1832 8.22 18.0432 7.23 16.6932 6.54C13.8232 5.07 10.1532 5.07 7.29316 6.55C5.93316 7.25 4.79316 8.25 3.89316 9.51C3.81316 9.65 3.66316 9.72 3.50316 9.72ZM9.40316 21.64C9.49316 21.74 9.62316 21.79 9.75316 21.79C9.88316 21.79 10.0132 21.74 10.1232 21.64C10.3132 21.44 10.3132 21.13 10.1232 20.93C9.35316 20.15 8.91316 19.66 8.27316 18.51C7.66316 17.43 7.34316 16.1 7.34316 14.66C7.34316 12.24 9.43316 10.27 12.0032 10.27C14.5732 10.27 16.6632 12.24 16.6632 14.66C16.6632 14.94 16.8832 15.16 17.1632 15.16C17.4432 15.16 17.6632 14.94 17.6632 14.66C17.6632 11.69 15.1232 9.27 12.0032 9.27C8.88316 9.27 6.34316 11.69 6.34316 14.66C6.34316 16.27 6.70316 17.77 7.39316 19C8.06316 20.21 8.53316 20.77 9.40316 21.64ZM16.9232 19.94C15.7332 19.94 14.6832 19.64 13.8232 19.05C12.3332 18.04 11.4432 16.4 11.4432 14.66C11.4432 14.38 11.6632 14.16 11.9432 14.16C12.2232 14.16 12.4432 14.38 12.4432 14.66C12.4432 16.07 13.1632 17.4 14.3832 18.22C15.0932 18.7 15.9232 18.93 16.9232 18.93C17.1632 18.93 17.5632 18.9 17.9632 18.83C18.2332 18.78 18.4932 18.96 18.5432 19.24C18.5932 19.51 18.4132 19.77 18.1332 19.82C17.5632 19.93 17.0632 19.94 16.9232 19.94ZM14.7832 21.98C14.8232 21.99 14.8732 22 14.9132 22C15.1232 22 15.3332 21.85 15.3832 21.62C15.4532 21.36 15.3032 21.08 15.0332 21.01C13.6232 20.62 12.7132 20.1 11.7632 19.16C10.5532 17.96 9.89316 16.36 9.89316 14.65C9.89316 13.58 10.8232 12.71 11.9732 12.71C13.1232 12.71 14.0532 13.58 14.0532 14.65C14.0532 16.27 15.4332 17.59 17.1332 17.59C18.8332 17.59 20.2132 16.27 20.2132 14.65C20.2132 10.33 16.5132 6.82 11.9632 6.82C8.73316 6.82 5.78316 8.63 4.45316 11.42C4.00316 12.37 3.77316 13.46 3.77316 14.66C3.77316 16.01 4.01316 17.31 4.50316 18.62C4.59316 18.87 4.88316 19.01 5.14316 18.91C5.40316 18.82 5.53316 18.53 5.43316 18.27C4.83316 16.67 4.76316 15.44 4.76316 14.66C4.76316 13.62 4.96316 12.67 5.35316 11.86C6.52316 9.41 9.12316 7.83 11.9632 7.83C15.9632 7.83 19.2132 10.89 19.2132 14.66C19.2132 15.73 18.2832 16.6 17.1332 16.6C15.9832 16.6 15.0532 15.73 15.0532 14.66C15.0532 13.04 13.6732 11.72 11.9732 11.72C10.2732 11.72 8.89316 13.04 8.89316 14.66C8.89316 16.64 9.66316 18.49 11.0632 19.88C12.1532 20.95 13.1932 21.54 14.7832 21.98Z"
           fill="black" />
</svg>
