<svg width="24" height="24" viewBox="0 0 24 24" fill="none" xmlns="http://www.w3.org/2000/svg">
    <path fill-rule="evenodd" clip-rule="evenodd"
        d="M4.1431 12.0015C4.1431 6.95154 8.3131 2.86154 13.4031 3.00154C18.0931 3.13154 22.0131 7.05154 22.1431 11.7415C22.2831 16.8315 18.1931 21.0015 13.1431 21.0015C11.0531 21.0015 9.1431 20.2915 7.6231 19.0915C7.1531 18.7315 7.1231 18.0215 7.5431 17.6015C7.9031 17.2415 8.4631 17.2115 8.8631 17.5215C10.0431 18.4515 11.5331 19.0015 13.1431 19.0015C17.0431 19.0015 20.1931 15.8115 20.1431 11.9015C20.0931 8.18154 16.9631 5.05154 13.2431 5.00154C9.3231 4.95154 6.1431 8.10154 6.1431 12.0015H7.9331C8.3831 12.0015 8.6031 12.5415 8.2931 12.8515L5.5031 15.6515C5.3031 15.8515 4.9931 15.8515 4.7931 15.6515L2.0031 12.8515C1.6831 12.5415 1.9031 12.0015 2.3531 12.0015H4.1431ZM12.1431 8.75154C12.1431 8.34154 12.4831 8.00154 12.8931 8.00154C13.3031 8.00154 13.6431 8.34154 13.6431 8.74154V12.1415L16.5231 13.8515C16.8731 14.0615 16.9931 14.5215 16.7831 14.8815C16.5731 15.2315 16.1131 15.3515 15.7531 15.1415L12.6331 13.2915C12.3331 13.1115 12.1431 12.7815 12.1431 12.4315V8.75154Z"
        fill="black" />

</svg>
