<svg width="24" height="24" viewBox="0 0 24 24" fill="none" xmlns="http://www.w3.org/2000/svg">
    <path
        d="M21.1818 4C20.3518 4 19.6818 4.67 19.6818 5.5V10.5C19.6818 10.78 19.4618 11 19.1818 11C18.9018 11 18.6818 10.78 18.6818 10.5V2.5C18.6818 1.67 18.0118 1 17.1818 1C16.3518 1 15.6818 1.67 15.6818 2.5V10.5C15.6818 10.78 15.4618 11 15.1818 11C14.9018 11 14.6818 10.78 14.6818 10.5V1.5C14.6818 0.67 14.0118 0 13.1818 0C12.3518 0 11.6818 0.67 11.6818 1.5V10.49C11.6818 10.77 11.4618 10.99 11.1818 10.99C10.9018 10.99 10.6818 10.77 10.6818 10.49V4.5C10.6818 3.67 10.0118 3 9.18176 3C8.35176 3 7.68176 3.67 7.68176 4.5V15.91L3.56176 13.56C2.98176 13.23 2.26176 13.32 1.78176 13.78C1.18176 14.36 1.16176 15.32 1.75176 15.91L8.53176 22.8C9.28176 23.57 10.3018 24 11.3818 24H18.6818C20.8918 24 22.6818 22.21 22.6818 20V5.5C22.6818 4.67 22.0118 4 21.1818 4Z"
        fill="black" />


</svg>
