<svg width="24" height="24" viewBox="0 0 24 24" fill="none" xmlns="http://www.w3.org/2000/svg">
    <path fill-rule="evenodd" clip-rule="evenodd"
        d="M11.0036 4.00293C11.0036 3.45293 11.4536 3.00293 12.0036 3.00293C12.5536 3.00293 13.0036 3.45293 13.0036 4.00293V12.0029C13.0036 12.5529 12.5536 13.0029 12.0036 13.0029C11.4536 13.0029 11.0036 12.5529 11.0036 12.0029V4.00293ZM17.1336 7.25293C16.7636 6.86293 16.7536 6.25293 17.1436 5.86293C17.5436 5.46293 18.2036 5.47293 18.5836 5.88293C20.0836 7.48293 21.0036 9.62293 21.0036 11.9929C21.0036 17.0629 16.8136 21.1529 11.7136 20.9929C6.83359 20.8429 2.86359 16.6229 3.00359 11.7429C3.07359 9.47293 3.98359 7.42293 5.43359 5.88293C5.81359 5.47293 6.46359 5.46293 6.86359 5.86293C7.24359 6.24293 7.24359 6.85293 6.87359 7.24293C5.71359 8.49293 5.00359 10.1629 5.00359 12.0029C5.00359 15.9029 8.18359 19.0529 12.0936 18.9929C15.9236 18.9529 19.0936 15.6529 19.0036 11.8229C18.9636 10.0529 18.2636 8.45293 17.1336 7.25293Z"
        fill="black" />
</svg>
