<svg width="24" height="24" viewBox="0 0 24 24" fill="none" xmlns="http://www.w3.org/2000/svg">
    <path fill-rule="evenodd" clip-rule="evenodd"
        d="M1.27687 2.68002C0.886875 2.29002 0.886875 1.66002 1.27687 1.27002C1.46371 1.08277 1.71736 0.977539 1.98188 0.977539C2.24639 0.977539 2.50004 1.08277 2.68687 1.27002L22.7269 21.32C23.1169 21.71 23.1169 22.34 22.7269 22.73C22.3369 23.12 21.7069 23.12 21.3169 22.73L19.1869 20.6C18.8269 21.11 18.2369 21.44 17.5669 21.44C16.4669 21.44 15.5769 20.54 15.5769 19.44C15.5769 18.77 15.9069 18.18 16.4069 17.82L15.0269 16.44H7.69688C6.63688 16.44 5.67688 15.68 5.57688 14.62C5.53688 14.2 5.62687 13.8 5.81687 13.47L7.16687 11.02L4.95688 6.36002L1.27687 2.68002ZM8.66687 12.44L7.56687 14.44H13.0269L11.0269 12.44H8.66687ZM16.6169 12.38C17.1569 12.24 17.6069 11.89 17.8669 11.41L21.4469 4.92002C21.8169 4.26002 21.3269 3.44002 20.5669 3.44002H7.68687L16.6169 12.38ZM5.57688 19.44C5.57688 18.34 6.46688 17.44 7.56688 17.44C8.66688 17.44 9.56688 18.34 9.56688 19.44C9.56688 20.54 8.66688 21.44 7.56688 21.44C6.46688 21.44 5.57688 20.54 5.57688 19.44Z"
        fill="black" />


</svg>
