<svg width="24" height="24" viewBox="0 0 24 24" fill="none" xmlns="http://www.w3.org/2000/svg">
    <path fill-rule="evenodd" clip-rule="evenodd"
        d="M2.73334 21.001H21.2633C22.0333 21.001 22.5133 20.171 22.1333 19.501L12.8633 3.50104C12.4733 2.83104 11.5133 2.83104 11.1333 3.50104L1.86334 19.501C1.48334 20.171 1.96334 21.001 2.73334 21.001ZM13.0033 18.001H11.0033V16.001H13.0033V18.001ZM11.0033 13.001C11.0033 13.551 11.4533 14.001 12.0033 14.001C12.5533 14.001 13.0033 13.551 13.0033 13.001V11.001C13.0033 10.451 12.5533 10.001 12.0033 10.001C11.4533 10.001 11.0033 10.451 11.0033 11.001V13.001Z"
        fill="black" />

</svg>
