<svg width="24" height="24" viewBox="0 0 24 24" fill="none" xmlns="http://www.w3.org/2000/svg">
    <path fill-rule="evenodd" clip-rule="evenodd"
        d="M19.5028 12C19.5028 12.34 19.4728 12.66 19.4328 12.98L21.5428 14.63C21.7328 14.78 21.7828 15.05 21.6628 15.27L19.6628 18.73C19.5428 18.95 19.2828 19.04 19.0528 18.95L16.5628 17.95C16.0428 18.34 15.4828 18.68 14.8728 18.93L14.4928 21.58C14.4628 21.82 14.2528 22 14.0028 22H10.0028C9.75277 22 9.54277 21.82 9.51277 21.58L9.13277 18.93C8.52277 18.68 7.96277 18.35 7.44277 17.95L4.95277 18.95C4.73277 19.03 4.46277 18.95 4.34277 18.73L2.34277 15.27C2.22277 15.05 2.27277 14.78 2.46277 14.63L4.57277 12.98C4.53277 12.66 4.50277 12.33 4.50277 12C4.50277 11.67 4.53277 11.34 4.57277 11.02L2.46277 9.37C2.27277 9.22 2.21277 8.95 2.34277 8.73L4.34277 5.27C4.46277 5.05 4.72277 4.96 4.95277 5.05L7.44277 6.05C7.96277 5.66 8.52277 5.32 9.13277 5.07L9.51277 2.42C9.54277 2.18 9.75277 2 10.0028 2H14.0028C14.2528 2 14.4628 2.18 14.4928 2.42L14.8728 5.07C15.4828 5.32 16.0428 5.65 16.5628 6.05L19.0528 5.05C19.2728 4.97 19.5428 5.05 19.6628 5.27L21.6628 8.73C21.7828 8.95 21.7328 9.22 21.5428 9.37L19.4328 11.02C19.4728 11.34 19.5028 11.66 19.5028 12ZM8.50277 12C8.50277 13.93 10.0728 15.5 12.0028 15.5C13.9328 15.5 15.5028 13.93 15.5028 12C15.5028 10.07 13.9328 8.5 12.0028 8.5C10.0728 8.5 8.50277 10.07 8.50277 12Z"
        fill="black" />

</svg>
