<svg width="24" height="24" viewBox="0 0 24 24" fill="none" xmlns="http://www.w3.org/2000/svg">
    <path fill-rule="evenodd" clip-rule="evenodd"
        d="M4.9991 6H18.9991C19.5491 6 19.9991 5.55 19.9991 5C19.9991 4.45 19.5491 4 18.9991 4H4.9991C4.4491 4 3.9991 4.45 3.9991 5C3.9991 5.55 4.4491 6 4.9991 6ZM20.1591 7.8C20.0691 7.34 19.6591 7 19.1791 7H4.8191C4.3391 7 3.9291 7.34 3.8391 7.8L2.8391 12.8C2.7191 13.42 3.1891 14 3.8191 14H3.9991V19C3.9991 19.55 4.4491 20 4.9991 20H12.9991C13.5491 20 13.9991 19.55 13.9991 19V14H17.9991V19C17.9991 19.55 18.4491 20 18.9991 20C19.5491 20 19.9991 19.55 19.9991 19V14H20.1791C20.8091 14 21.2791 13.42 21.1591 12.8L20.1591 7.8ZM5.9991 18H11.9991V14H5.9991V18Z"
        fill="black" />

</svg>
