<svg width="24" height="24" viewBox="0 0 24 24" fill="none" xmlns="http://www.w3.org/2000/svg">
    <path fill-rule="evenodd" clip-rule="evenodd"
        d="M5.82391 4.99973H10.0639C11.4939 4.99973 12.4639 6.46973 11.9039 7.78973L9.76391 12.7897C9.44391 13.5197 8.72391 13.9997 7.92391 13.9997H2.00391C0.903906 13.9997 0.00390625 13.0997 0.00390625 11.9997V6.20973C0.00390625 5.67973 0.213906 5.16973 0.603906 4.79973L4.60391 0.799727C5.03391 0.359727 5.74391 0.359727 6.18391 0.799727C6.44391 1.06973 6.56391 1.44973 6.48391 1.81973L5.82391 4.99973ZM16.0839 9.99973H22.0039C23.1039 9.99973 24.0039 10.8997 23.9939 11.9997V17.7897C23.9939 18.3197 23.7839 18.8197 23.4039 19.1997L19.4039 23.1997C18.9739 23.6397 18.2639 23.6397 17.8239 23.1997C17.5639 22.9297 17.4439 22.5497 17.5239 22.1797L18.1839 18.9997H13.9439C12.5039 18.9997 11.5439 17.5297 12.1039 16.2097L14.2439 11.2097C14.5639 10.4797 15.2839 9.99973 16.0839 9.99973Z"
        fill="black" />

</svg>
