<svg width="24" height="24" viewBox="0 0 24 24" fill="none" xmlns="http://www.w3.org/2000/svg">
    <path fill-rule="evenodd" clip-rule="evenodd"
        d="M14.9184 11.1V5.5C14.9184 3.84 13.5784 2.5 11.9184 2.5C10.3784 2.5 9.12844 3.66 8.95844 5.15L14.9184 11.1ZM17.9984 11.5C17.5884 11.5 17.2284 11.8 17.1684 12.21C17.1184 12.53 17.0484 12.85 16.9484 13.14L18.2184 14.41C18.5184 13.81 18.7384 13.16 18.8484 12.47C18.9184 11.96 18.5184 11.5 17.9984 11.5ZM3.62844 5.47C3.23844 5.08 3.23844 4.45 3.62844 4.06C3.81527 3.87275 4.06892 3.76751 4.33344 3.76751C4.59796 3.76751 4.85161 3.87275 5.03844 4.06L20.3684 19.4C20.7584 19.79 20.7584 20.42 20.3684 20.81C19.9784 21.2 19.3484 21.2 18.9584 20.81L15.4684 17.32C14.6884 17.77 13.8284 18.09 12.9184 18.22V20.5C12.9184 21.05 12.4684 21.5 11.9184 21.5C11.3684 21.5 10.9184 21.05 10.9184 20.5V18.22C7.94844 17.77 5.44844 15.43 4.98844 12.47C4.91844 11.96 5.31844 11.5 5.83844 11.5C6.24844 11.5 6.60844 11.8 6.66844 12.21C7.03844 14.83 9.37844 16.6 11.9184 16.6C12.7284 16.6 13.5184 16.41 14.2284 16.08L12.5684 14.42C11.9584 14.55 11.2984 14.54 10.5484 14.11C9.51844 13.52 8.91844 12.39 8.91844 11.2V10.77L3.62844 5.47Z"
        fill="black" />
</svg>
