<svg width="24" height="24" viewBox="0 0 24 24" fill="none" xmlns="http://www.w3.org/2000/svg">
    <path fill-rule="evenodd" clip-rule="evenodd"
        d="M11.999 14.5C13.659 14.5 14.999 13.16 14.999 11.5V5.5C14.999 3.84 13.659 2.5 11.999 2.5C10.339 2.5 8.99901 3.84 8.99901 5.5V11.5C8.99901 13.16 10.339 14.5 11.999 14.5ZM10.999 5.5C10.999 4.95 11.449 4.5 11.999 4.5C12.549 4.5 12.999 4.95 12.999 5.5V11.5C12.999 12.05 12.549 12.5 11.999 12.5C11.449 12.5 10.999 12.05 10.999 11.5V5.5ZM16.929 12.35C17.009 11.86 17.419 11.5 17.909 11.5C18.519 11.5 19.009 12.04 18.909 12.64C18.419 15.64 16.019 17.99 12.999 18.42V20.5C12.999 21.05 12.549 21.5 11.999 21.5C11.449 21.5 10.999 21.05 10.999 20.5V18.42C7.97901 17.99 5.57901 15.64 5.08901 12.64C4.99901 12.04 5.47901 11.5 6.08901 11.5C6.57901 11.5 6.98901 11.86 7.06901 12.35C7.47901 14.7 9.52901 16.5 11.999 16.5C14.469 16.5 16.519 14.7 16.929 12.35Z"
        fill="black" />
</svg>
