<svg width="24" height="24" viewBox="0 0 24 24" fill="none" xmlns="http://www.w3.org/2000/svg">
    <path
        d="M11.9639 5.64261V2.85261C11.9639 2.40261 11.4239 2.18261 11.1139 2.50261L7.3139 6.29261C7.1139 6.49261 7.1139 6.80261 7.3139 7.00261L11.1039 10.7926C11.4239 11.1026 11.9639 10.8826 11.9639 10.4326V7.64261C15.6939 7.64261 18.6439 11.0626 17.8239 14.9326C17.3539 17.2026 15.5139 19.0326 13.2539 19.5026C9.6839 20.2526 6.5039 17.8026 6.0239 14.4926C5.9539 14.0126 5.5339 13.6426 5.0439 13.6426C4.4439 13.6426 3.9639 14.1726 4.0439 14.7726C4.6639 19.1626 8.8439 22.4126 13.5739 21.4926C16.6939 20.8826 19.2039 18.3726 19.8139 15.2526C20.8039 10.1226 16.9039 5.64261 11.9639 5.64261Z"
        fill="black" />
</svg>
