<svg width="24" height="24" viewBox="0 0 24 24" fill="none" xmlns="http://www.w3.org/2000/svg">
    <path fill-rule="evenodd" clip-rule="evenodd"
        d="M2.99953 4.53989C2.60953 4.14989 2.60953 3.51989 2.99953 3.12989C3.18636 2.94264 3.44001 2.8374 3.70453 2.8374C3.96905 2.8374 4.2227 2.94264 4.40953 3.12989L20.7295 19.4599C21.1195 19.8499 21.1195 20.4799 20.7295 20.8699C20.3395 21.2599 19.7095 21.2599 19.3195 20.8699L16.8395 18.3899C16.6795 18.4899 16.4995 18.5699 16.2895 18.5699H4.28953C3.73953 18.5699 3.28953 18.1199 3.28953 17.5699V7.56989C3.28953 7.01989 3.73953 6.56989 4.28953 6.56989H5.01953L2.99953 4.53989ZM21.2895 9.47989V14.7699C21.2895 15.6599 20.2095 16.1099 19.5895 15.4799L10.6795 6.56989H16.2895C16.8395 6.56989 17.2895 7.01989 17.2895 7.56989V11.0699L19.5795 8.76989C20.2095 8.13989 21.2895 8.58989 21.2895 9.47989Z"
        fill="black" />
</svg>
