<svg width="24" height="24" viewBox="0 0 24 24" fill="none" xmlns="http://www.w3.org/2000/svg">
        <path fill-rule="evenodd" clip-rule="evenodd" d="M14 4.65204V4.45204C14 3.82204 14.63 3.37204 15.21 3.60204C18.6 4.89204 21 8.16204 21 12.002C21 15.842 18.6 19.112 15.21 20.402C14.63 20.622 14 20.182 14 19.552V19.352C14 18.972 14.24 18.642 14.6 18.502C17.18 17.472 19 14.942 19 12.002C19 9.06204 17.18 6.53204 14.6 5.50204C14.25 5.36204 14 5.03204 14 4.65204ZM3 10.002V14.002C3 14.552 3.45 15.002 4 15.002H7L10.29 18.292C10.92 18.922 12 18.472 12 17.582V6.41204C12 5.52204 10.92 5.07204 10.29 5.70204L7 9.00204H4C3.45 9.00204 3 9.45204 3 10.002ZM16.5 12.002C16.5 10.232 15.48 8.71204 14 7.97204V16.022C15.48 15.292 16.5 13.772 16.5 12.002Z" fill="black"/>
</svg>
