<svg width="24" height="24" viewBox="0 0 24 24" fill="none" xmlns="http://www.w3.org/2000/svg">
    <path fill-rule="evenodd" clip-rule="evenodd"
        d="M3.63 5.04479C3.24 4.65479 3.24 4.02479 3.63 3.63479C4.03 3.24479 4.66 3.24479 5.05 3.63479L20.36 18.9548C20.75 19.3448 20.75 19.9748 20.36 20.3648C19.97 20.7548 19.34 20.7548 18.95 20.3648L17.61 19.0248C16.94 19.5648 16.19 20.0048 15.39 20.3348C14.73 20.6048 14 20.1448 14 19.4248C14 19.0348 14.22 18.6548 14.58 18.5048C15.16 18.2748 15.69 17.9648 16.18 17.5948L12 13.4148V17.5848C12 18.4748 10.92 18.9248 10.29 18.2948L7 15.0048H4C3.45 15.0048 3 14.5548 3 14.0048V10.0048C3 9.45478 3.45 9.00479 4 9.00479H7L7.29 8.70479L3.63 5.04479ZM18.59 14.3448C18.85 13.6148 19 12.8248 19 12.0048C19 9.06479 17.18 6.54479 14.61 5.50479C14.25 5.36479 14 5.03479 14 4.65479V4.46479C14 3.83479 14.63 3.37479 15.22 3.60479C18.6 4.89479 21 8.17479 21 12.0048C21 13.3948 20.68 14.7048 20.12 15.8748L18.59 14.3448ZM10.29 5.71479L10.12 5.88479L12 7.76479V6.41479C12 5.52479 10.92 5.08479 10.29 5.71479ZM14 7.97479C15.48 8.71479 16.5 10.2348 16.5 12.0048C16.5 12.0848 16.49 12.1648 16.48 12.2448L14 9.76479V7.97479Z"
        fill="black" />

</svg>
