<svg width="24" height="24" viewBox="0 0 24 24" fill="none" xmlns="http://www.w3.org/2000/svg">
    <path fill-rule="evenodd" clip-rule="evenodd" d="M14.9905 11.5C14.9905 13.16 13.6605 14.5 12.0005 14.5C10.3405 14.5 9.00047 13.16 9.00047 11.5V5.5C9.00047 3.84 10.3405 2.5 12.0005 2.5C13.6605 2.5 15.0005 3.84 15.0005 5.5L14.9905 11.5ZM17.2505 12.21C17.3105 11.8 17.6605 11.5 18.0805 11.5C18.6005 11.5 19.0005 11.96 18.9305 12.47C18.4705 15.44 15.9605 17.79 13.0005 18.22V20.5C13.0005 21.05 12.5505 21.5 12.0005 21.5C11.4505 21.5 11.0005 21.05 11.0005 20.5V18.22C8.03047 17.77 5.53047 15.44 5.07047 12.47C5.00047 11.96 5.40047 11.5 5.92047 11.5C6.33047 11.5 6.69047 11.8 6.75047 12.21C7.12047 14.83 9.47047 16.6 12.0005 16.6C14.5305 16.6 16.8805 14.82 17.2505 12.21Z" fill="black"/>

</svg>
