<svg width="24" height="24" viewBox="0 0 24 24" fill="none" xmlns="http://www.w3.org/2000/svg">
    <path fill-rule="evenodd" clip-rule="evenodd" d="M18.37 3.29102L20.71 5.63102C21.1 6.02102 21.1 6.65102 20.69 7.05102L17.57 10.171L18.79 11.391C19.18 11.781 19.18 12.411 18.79 12.801C18.4 13.191 17.77 13.191 17.38 12.801L16.66 12.081L7.89 20.851C7.8 20.951 7.67 21.001 7.54 21.001H3.5C3.22 21.001 3 20.781 3 20.501V16.461C3 16.321 3.05 16.201 3.15 16.101L11.92 7.33102L11.2 6.61102C10.81 6.22102 10.81 5.59102 11.2 5.20102C11.59 4.82102 12.22 4.81102 12.61 5.20102L13.84 6.41102L16.96 3.29102C17.1468 3.10377 17.4005 2.99854 17.665 2.99854C17.9295 2.99854 18.1832 3.10377 18.37 3.29102ZM5 17.081L6.92 19.001L14.98 10.941L13.06 9.02102L5 17.081Z" fill="black"/>

</svg>
