<svg width="24" height="24" viewBox="0 0 24 24" fill="none" xmlns="http://www.w3.org/2000/svg">
    <path d="M11.9057 14.6251C12.6019 14.6251 13.2695 14.3485 13.7618 13.8562C14.2541 13.364 14.5307 12.6963 14.5307 12.0001C14.5307 11.9232 14.5272 11.847 14.5206 11.7718L11.6774 14.615C11.7526 14.6216 11.8286 14.6251 11.9057 14.6251ZM20.5944 3.88038L19.5932 2.88007C19.558 2.84493 19.5103 2.8252 19.4606 2.8252C19.4109 2.8252 19.3633 2.84493 19.3281 2.88007L16.7659 5.44296C15.3525 4.72062 13.7636 4.35945 11.9994 4.35945C7.49472 4.35945 4.13378 6.70554 1.91659 11.3977C1.82747 11.5864 1.78125 11.7926 1.78125 12.0012C1.78125 12.2099 1.82747 12.4161 1.91659 12.6048C2.80253 14.4709 3.86933 15.9666 5.11698 17.0919L2.63753 19.5704C2.60239 19.6056 2.58265 19.6532 2.58265 19.7029C2.58265 19.7526 2.60239 19.8003 2.63753 19.8355L3.63808 20.836C3.67324 20.8712 3.72091 20.8909 3.77062 20.8909C3.82032 20.8909 3.868 20.8712 3.90316 20.836L20.5944 4.1457C20.6119 4.12828 20.6257 4.1076 20.6351 4.08484C20.6446 4.06208 20.6494 4.03768 20.6494 4.01304C20.6494 3.9884 20.6446 3.964 20.6351 3.94124C20.6257 3.91848 20.6119 3.8978 20.5944 3.88038ZM7.78066 12.0001C7.78059 11.2876 7.96508 10.5872 8.31613 9.96724C8.66719 9.34724 9.17285 8.82874 9.78385 8.46225C10.3949 8.09576 11.0904 7.89378 11.8026 7.87599C12.5149 7.85819 13.2196 8.02518 13.8482 8.3607L12.7086 9.50023C12.2491 9.35308 11.7579 9.33536 11.2889 9.44901C10.8199 9.56266 10.3913 9.80329 10.0501 10.1445C9.70888 10.4857 9.46825 10.9143 9.3546 11.3833C9.24094 11.8523 9.25867 12.3435 9.40582 12.803L8.26628 13.9426C7.9465 13.3451 7.77966 12.6777 7.78066 12.0001Z" fill="#858C94"/>
    <path d="M22.0811 11.3954C21.2561 9.65792 20.2741 8.24112 19.1352 7.14502L15.757 10.5235C16.0417 11.268 16.1048 12.0789 15.9387 12.8584C15.7725 13.6379 15.3842 14.3526 14.8206 14.9162C14.2571 15.4798 13.5423 15.8681 12.7628 16.0343C11.9833 16.2004 11.1724 16.1373 10.428 15.8525L7.5625 18.718C8.89188 19.3332 10.3705 19.6408 11.9983 19.6408C16.503 19.6408 19.8639 17.2947 22.0811 12.6025C22.1702 12.4137 22.2165 12.2076 22.2165 11.9989C22.2165 11.7902 22.1702 11.5841 22.0811 11.3954Z" fill="#858C94"/>
</svg>
