<svg width="24" height="24" viewBox="0 0 24 24" fill="none" xmlns="http://www.w3.org/2000/svg">
    <path fill-rule="evenodd" clip-rule="evenodd" d="M17.7062 4.12529C18.0363 3.45529 17.5562 2.67529 16.8062 2.67529H9.42625C8.87625 2.67529 8.42625 3.12529 8.42625 3.67529V4.28529L14.5562 10.4153L17.7062 4.12529ZM17.5462 12.1753C17.9362 11.5053 17.4563 10.6753 16.6862 10.6753H14.8162L17.0962 12.9553L17.5462 12.1753ZM5.54625 4.23529L19.8662 18.5553C20.2562 18.9453 20.2563 19.5753 19.8563 19.9653C19.4663 20.3553 18.8363 20.3553 18.4462 19.9653L15.0063 16.5253L12.3562 21.0753C12.0962 21.5153 11.4262 21.3353 11.4262 20.8253V13.6753H9.42625C8.87625 13.6753 8.42625 13.2253 8.42625 12.6753V9.94529L4.13625 5.64529C3.74625 5.25529 3.74625 4.62529 4.13625 4.23529C4.32308 4.04804 4.57673 3.94281 4.84125 3.94281C5.10577 3.94281 5.35942 4.04804 5.54625 4.23529Z" fill="black"/>

</svg>
