<svg width="24" height="24" viewBox="0 0 24 24" fill="none" xmlns="http://www.w3.org/2000/svg">
    <path fill-rule="evenodd" clip-rule="evenodd" d="M2.58984 3.17529V13.1753C2.58984 13.7253 3.03984 14.1753 3.58984 14.1753H5.58984V21.3253C5.58984 21.8353 6.25984 22.0153 6.51984 21.5753L11.7098 12.6753C12.0998 12.0053 11.6198 11.1753 10.8498 11.1753H8.58984L11.9698 3.58529C12.2598 2.91529 11.7698 2.17529 11.0498 2.17529H3.58984C3.03984 2.17529 2.58984 2.62529 2.58984 3.17529ZM17.5898 2.17529C16.9898 2.17529 16.4598 2.55529 16.2498 3.11529L13.8098 9.97529C13.6098 10.5653 14.0398 11.1753 14.6598 11.1753C15.0398 11.1753 15.3798 10.9353 15.4998 10.5753L15.9898 9.17529H19.1898L19.6798 10.5753C19.8098 10.9353 20.1398 11.1753 20.5198 11.1753C21.1398 11.1753 21.5698 10.5653 21.3598 9.98529L18.9198 3.12529C18.7198 2.55529 18.1898 2.17529 17.5898 2.17529ZM17.5898 4.17529L16.4398 7.82529H18.7398L17.5898 4.17529Z" fill="black"/>

</svg>
