<svg width="24" height="24" viewBox="0 0 24 24" fill="none" xmlns="http://www.w3.org/2000/svg">
    <path fill-rule="evenodd" clip-rule="evenodd" d="M13.9302 6.99951V9.60951L11.9302 7.60951V3.99951C11.9302 3.44951 12.3802 2.99951 12.9302 2.99951H15.9302C17.0302 2.99951 17.9302 3.89951 17.9302 4.99951C17.9302 6.09951 17.0302 6.99951 15.9302 6.99951H13.9302ZM4.34516 3.26703C4.60967 3.26703 4.86332 3.37226 5.05016 3.55951L20.3602 18.8795C20.7502 19.2695 20.7502 19.8995 20.3602 20.2895C19.9702 20.6795 19.3402 20.6795 18.9502 20.2895L13.9302 15.2695V16.8495C13.9302 18.8395 12.5402 20.6395 10.5802 20.9495C7.85016 21.3795 5.53016 19.0395 5.99016 16.2995C6.23016 14.8995 7.26016 13.7095 8.60016 13.2295C9.83016 12.7995 10.9902 13.0095 11.9302 13.5495V13.2695L3.64016 4.96951C3.25016 4.57951 3.25016 3.94951 3.64016 3.55951C3.82699 3.37226 4.08064 3.26703 4.34516 3.26703Z" fill="black"/>

</svg>
