<svg width="24" height="24" viewBox="0 0 24 24" fill="none" xmlns="http://www.w3.org/2000/svg">
    <path fill-rule="evenodd" clip-rule="evenodd" d="M10.003 1.5H14.003C14.553 1.5 15.003 1.95 15.003 2.5C15.003 3.05 14.553 3.5 14.003 3.5H10.003C9.45303 3.5 9.00303 3.05 9.00303 2.5C9.00303 1.95 9.45303 1.5 10.003 1.5ZM13.003 13.5C13.003 14.05 12.553 14.5 12.003 14.5C11.453 14.5 11.003 14.05 11.003 13.5V9.5C11.003 8.95 11.453 8.5 12.003 8.5C12.553 8.5 13.003 8.95 13.003 9.5V13.5ZM19.033 7.89L19.783 7.14C20.163 6.76 20.173 6.13 19.783 5.74L19.773 5.73C19.383 5.34 18.763 5.35 18.373 5.73L17.623 6.48C16.073 5.24 14.123 4.5 12.003 4.5C7.20303 4.5 3.12303 8.46 3.00303 13.26C2.87303 18.34 6.94303 22.5 12.003 22.5C16.983 22.5 21.003 18.47 21.003 13.5C21.003 11.38 20.263 9.43 19.033 7.89ZM5.00303 13.5C5.00303 17.37 8.13303 20.5 12.003 20.5C15.873 20.5 19.003 17.37 19.003 13.5C19.003 9.63 15.873 6.5 12.003 6.5C8.13303 6.5 5.00303 9.63 5.00303 13.5Z" fill="black"/>

</svg>
