<svg width="24" height="24" viewBox="0 0 24 24" fill="none" xmlns="http://www.w3.org/2000/svg">
    <path fill-rule="evenodd" clip-rule="evenodd" d="M10.4145 3.20898H14.4145C14.9645 3.20898 15.4145 2.75898 15.4145 2.20898C15.4145 1.65898 14.9645 1.20898 14.4145 1.20898H10.4145C9.86453 1.20898 9.41453 1.65898 9.41453 2.20898C9.41453 2.75898 9.86453 3.20898 10.4145 3.20898ZM12.4145 8.20898C11.9045 8.20898 11.4945 8.59898 11.4345 9.09898L13.4145 11.069V9.20898C13.4145 8.65898 12.9645 8.20898 12.4145 8.20898ZM19.4145 13.209C19.4145 9.33898 16.2845 6.20898 12.4145 6.20898C11.2945 6.20898 10.2345 6.47898 9.29453 6.94898L7.84453 5.49898C9.19453 4.68898 10.7545 4.20898 12.4145 4.20898C14.5345 4.20898 16.4845 4.94898 18.0345 6.18898L18.7845 5.43898C19.1745 5.05898 19.7945 5.04898 20.1845 5.43898L20.1945 5.44898C20.5845 5.83898 20.5745 6.46898 20.1945 6.84898L19.4445 7.59898C20.6745 9.13898 21.4145 11.089 21.4145 13.209C21.4145 14.889 20.9445 16.459 20.1445 17.799L18.6745 16.329C19.1445 15.389 19.4145 14.329 19.4145 13.209ZM20.6045 21.089L4.28453 4.76898C4.0977 4.58173 3.84405 4.4765 3.57953 4.4765C3.31501 4.4765 3.06136 4.58173 2.87453 4.76898C2.48453 5.15898 2.48453 5.78898 2.87453 6.17898L4.94453 8.24898C4.02453 9.62898 3.46453 11.239 3.41453 12.969C3.28453 18.049 7.35453 22.209 12.4145 22.209C14.2545 22.209 15.9645 21.659 17.3945 20.709L19.1845 22.499C19.5745 22.889 20.2045 22.889 20.5945 22.499C20.9945 22.109 20.9945 21.479 20.6045 21.089ZM5.41453 13.209C5.41453 17.079 8.54453 20.209 12.4145 20.209C13.7045 20.209 14.9045 19.859 15.9445 19.259L6.37453 9.68898C5.76453 10.719 5.41453 11.919 5.41453 13.209Z" fill="black"/>

</svg>
