<svg width="24" height="24" viewBox="0 0 24 24" fill="none" xmlns="http://www.w3.org/2000/svg">
    <path fill-rule="evenodd" clip-rule="evenodd" d="M15.0039 2.5249V6.3349C16.7939 7.3749 18.0039 9.3049 18.0039 11.5349C18.0039 15.0849 14.8939 17.9249 11.2539 17.4849C8.63391 17.1649 6.47391 15.0749 6.07391 12.4649C5.68391 9.8549 6.96391 7.5149 9.00391 6.3349V2.5249C9.00391 1.9749 9.45391 1.5249 10.0039 1.5249H14.0039C14.5539 1.5249 15.0039 1.9749 15.0039 2.5249ZM3.01391 10.5249H1.99391C1.44391 10.5249 1.00391 10.9649 1.00391 11.5149V11.5249C1.00391 12.0749 1.44391 12.5149 1.99391 12.5149H3.00391C3.55391 12.5149 3.99391 12.0749 3.99391 11.5249V11.5149C4.00391 10.9649 3.56391 10.5249 3.01391 10.5249ZM5.66391 19.2649C5.27391 19.6549 4.64391 19.6549 4.25391 19.2649C3.86391 18.8749 3.86391 18.2549 4.24391 17.8549L4.63391 17.4649C4.82074 17.2776 5.07439 17.1724 5.33891 17.1724C5.60342 17.1724 5.85707 17.2776 6.04391 17.4649L6.05391 17.4749C6.43391 17.8549 6.44391 18.4849 6.05391 18.8749L5.66391 19.2649ZM12.0039 22.4749H11.9939C11.4439 22.4749 11.0039 22.0349 11.0039 21.4849V20.5249C11.0039 19.9749 11.4439 19.5349 11.9939 19.5349H12.0039C12.5539 19.5349 12.9939 19.9749 12.9939 20.5249V21.4849C12.9939 22.0349 12.5539 22.4749 12.0039 22.4749ZM20.0039 11.5149V11.5249C20.0039 12.0749 20.4439 12.5149 20.9939 12.5149H22.0039C22.5539 12.5149 22.9939 12.0749 22.9939 11.5249V11.5149C22.9939 10.9649 22.5539 10.5249 22.0039 10.5249H20.9939C20.4439 10.5249 20.0039 10.9649 20.0039 11.5149ZM18.3339 19.2749L17.9439 18.8849C17.5539 18.4949 17.5539 17.8749 17.9539 17.4749C18.3339 17.0949 18.9639 17.0849 19.3539 17.4749L19.7439 17.8649C20.1339 18.2549 20.1339 18.8849 19.7439 19.2749C19.3539 19.6649 18.7239 19.6649 18.3339 19.2749Z" fill="black"/>

</svg>
