<svg width="24" height="24" viewBox="0 0 24 24" fill="none" xmlns="http://www.w3.org/2000/svg">
    <path fill-rule="evenodd" clip-rule="evenodd" d="M12.0039 1.0498H12.0139C12.5639 1.0498 13.0039 1.4898 13.0039 2.0398V3.0098C13.0039 3.5598 12.5639 3.9998 12.0039 3.9898H11.9939C11.4439 3.9898 11.0039 3.5498 11.0039 2.9998V2.0398C11.0039 1.4898 11.4439 1.0498 12.0039 1.0498ZM6.05391 4.6398L5.66391 4.2498C5.27391 3.8598 4.64391 3.8698 4.26391 4.2498L4.25391 4.2598C3.86391 4.6498 3.86391 5.2798 4.25391 5.6598L4.64391 6.0498C5.03391 6.4398 5.65391 6.4398 6.04391 6.0498L6.05391 6.0398C6.44391 5.6598 6.44391 5.0198 6.05391 4.6398ZM3.01391 10.9998H1.99391C1.44391 10.9998 1.00391 11.4398 1.00391 11.9898V11.9998C1.00391 12.5498 1.44391 12.9898 1.99391 12.9898H3.00391C3.56391 12.9998 4.00391 12.5598 4.00391 12.0098V11.9998C4.00391 11.4398 3.56391 10.9998 3.01391 10.9998ZM19.7539 4.2598C19.3639 3.8698 18.7339 3.8698 18.3439 4.2498L17.9539 4.6398C17.5639 5.0298 17.5639 5.6598 17.9539 6.0398L17.9639 6.0498C18.3539 6.4398 18.9839 6.4398 19.3639 6.0498L19.7539 5.6598C20.1439 5.2698 20.1439 4.6498 19.7539 4.2598ZM18.3339 19.7498L17.9439 19.3598C17.5539 18.9698 17.5539 18.3498 17.9539 17.9498C18.3339 17.5698 18.9639 17.5598 19.3539 17.9498L19.7439 18.3398C20.1339 18.7298 20.1339 19.3598 19.7439 19.7498C19.3539 20.1398 18.7239 20.1398 18.3339 19.7498ZM20.0039 11.9898V11.9998C20.0039 12.5498 20.4439 12.9898 20.9939 12.9898H22.0039C22.5539 12.9898 22.9939 12.5498 22.9939 11.9998V11.9898C22.9939 11.4398 22.5539 10.9998 22.0039 10.9998H20.9939C20.4439 10.9998 20.0039 11.4398 20.0039 11.9898ZM6.00391 11.9998C6.00391 8.6898 8.69391 5.9998 12.0039 5.9998C15.3139 5.9998 18.0039 8.6898 18.0039 11.9998C18.0039 15.3098 15.3139 17.9998 12.0039 17.9998C8.69391 17.9998 6.00391 15.3098 6.00391 11.9998ZM11.9939 22.9498H12.0039C12.5539 22.9498 12.9939 22.5098 12.9939 21.9598V20.9998C12.9939 20.4498 12.5539 20.0098 12.0039 20.0098H11.9939C11.4439 20.0098 11.0039 20.4498 11.0039 20.9998V21.9598C11.0039 22.5098 11.4439 22.9498 11.9939 22.9498ZM5.66391 19.7398C5.27391 20.1298 4.64391 20.1298 4.25391 19.7398C3.86391 19.3498 3.86391 18.7298 4.24391 18.3298L4.63391 17.9398C4.82074 17.7526 5.07439 17.6473 5.33891 17.6473C5.60342 17.6473 5.85707 17.7526 6.04391 17.9398L6.05391 17.9498C6.43391 18.3298 6.44391 18.9598 6.05391 19.3498L5.66391 19.7398Z" fill="black"/>

</svg>
